<?xml version="1.0" encoding="utf-8"?>
<!-- Generator: Adobe Illustrator 16.0.0, SVG Export Plug-In . SVG Version: 6.00 Build 0)  -->
<!DOCTYPE svg PUBLIC "-//W3C//DTD SVG 1.1//EN" "http://www.w3.org/Graphics/SVG/1.1/DTD/svg11.dtd">
<svg version="1.1" id="Layer_1" xmlns="http://www.w3.org/2000/svg" xmlns:xlink="http://www.w3.org/1999/xlink" x="0px" y="0px"
	 width="841.9px" height="595.3px" viewBox="0 0 841.9 595.3" enable-background="new 0 0 841.9 595.3" xml:space="preserve">
<path fill="none" stroke="#000000" stroke-width="0.792" d="M445.7,428.5c18.7-0.3,35.4-11.9,49.5-30.1
	c13.2-16.9,22.3-39.6,26.6-65.5c0-0.2,2.9-18.4,3-18.5L513,329.3l-8.3-16.9c0,0.1-3.2,17.8-3.2,18c-7,42.6-31.3,73.8-55.9,74.5h-0.5
	c-24.6-0.7-48.9-31.8-55.9-74.5c0-0.1-3.2-17.8-3.2-18l-8,16.9l-12-14.9c0,0.2,2.9,18.4,3,18.5c4.2,25.9,13.4,48.6,26.6,65.5
	c14.1,18.2,30.8,29.7,49.5,30.1H445.7z"/>
<ellipse fill="none" stroke="#000000" stroke-width="1.3896" cx="445.9" cy="304.1" rx="124" ry="186.5"/>
<ellipse fill="none" stroke="#000000" stroke-width="0.792" cx="445.9" cy="304.1" rx="117.4" ry="179.5"/>
<ellipse fill="none" stroke="#000000" stroke-width="0.792" cx="445.9" cy="303.3" rx="88.4" ry="148.4"/>
<ellipse fill="none" stroke="#000000" stroke-width="0.792" cx="445.9" cy="303.3" rx="82.8" ry="141.3"/>
<g>
	<rect x="339.8" y="288.8" fill="none" stroke="#000000" stroke-width="0.792" width="6.2" height="12.3"/>
	<rect x="339.8" y="316.6" fill="none" stroke="#000000" stroke-width="0.792" width="6.2" height="12.1"/>
	<rect x="339.8" y="304.4" fill="none" stroke="#000000" stroke-width="0.792" width="6.2" height="8.8"/>
</g>
<g>
	<rect x="546" y="288.8" fill="none" stroke="#000000" stroke-width="0.792" width="6.2" height="12.3"/>
	<rect x="546" y="316.6" fill="none" stroke="#000000" stroke-width="0.792" width="6.2" height="12.1"/>
	<rect x="546" y="304.4" fill="none" stroke="#000000" stroke-width="0.792" width="6.2" height="8.8"/>
</g>
<path fill="#FFFFFF" stroke="#000000" stroke-width="0.5558" d="M477.5,433.8c0,0,13.9-10.7,19.5-19.5"/>
<g>
	<path fill="#FFFFFF" d="M351.3,270.1c-0.6-0.7-1.1-1.2-1.7-1.5c-0.6-0.3-1.6-0.5-3.1-0.8l-4.2-0.7c-1.1-0.2-1.8-0.3-2.1-0.4
		c-0.3-0.1-0.7-0.3-1.1-0.6c-0.7-0.5-1.5-1.4-2.6-2.6c0.6,1.6,1.3,2.9,1.9,4c0.7,1,1.5,1.9,2.7,2.7c1.1,0.8,2.4,1.3,3.9,1.5
		c1.3,0.2,2.5,0.2,3.7-0.2C349.7,271.1,350.5,270.7,351.3,270.1z M353.8,263.1c-0.1-0.7-0.2-1.3-0.4-1.9c-0.2-0.8-0.6-1.8-1.2-2.9
		l-12.6-2l-1.4,1.4l1.5,1.9l-0.5,0.4l-3.3-4l2.6-2.7l-1.3-1.8l0.5-0.4c0.9,1,1.5,1.6,1.9,1.9c0.4,0.3,1.1,0.5,2,0.6l10,1.6
		c1.4,0.2,2.3,0.2,2.7,0.1c0.4-0.2,0.6-0.4,0.7-0.7c0-0.2-0.1-0.5-0.3-0.8l0.9-0.1l1.9,3.3c-0.6,0.7-1.2,1.2-1.7,1.4
		c-0.5,0.2-1.4,0.2-2.5,0.1c1.2,1.7,2,3.3,2.4,4.7s0.5,2.9,0.2,4.5c-0.5,2.9-1.8,4.9-4.1,6.1c-1.7,0.9-3.6,1.2-5.6,0.9
		c-1.5-0.2-2.8-0.8-4-1.6c-1.2-0.9-2.3-2-3.3-3.6c-0.7-1-1.3-2.4-2-4c0.1,1.2,0.1,2.1,0,2.7c-0.1,0.4-0.2,0.9-0.3,1.4
		s-0.2,0.9-0.3,1.3c-0.1,0.8,0,1.4,0.4,2c0.4,0.5,1,0.9,1.9,1c0.3,0,0.7,0.1,1.2,0.1l-0.1,0.6c-0.7,0-1.2,0-1.7-0.1
		c-1.5-0.2-2.6-0.8-3.4-1.7c-0.8-0.9-1.1-1.9-0.9-3c0-0.3,0.1-0.6,0.2-0.8c0.1-0.2,0.3-0.7,0.8-1.6c0.5-0.9,0.8-1.7,0.9-2.5
		c0.1-0.7,0.1-1.3-0.1-2c-0.1-0.3-0.3-0.7-0.6-1.2l0.1-0.7l0.4,0.1l0.9,0.8c0.5,0.7,1,1.2,1.5,1.4c0.5,0.2,1.4,0.5,2.9,0.7l6.5,1
		c0.7,0.1,1.2,0.2,1.6,0.4c0.4,0.2,0.8,0.5,1.2,1c0.5,0.6,1.2,1.7,2,3.3c0.6-0.6,1-1.2,1.3-1.7c0.3-0.6,0.5-1.2,0.6-2
		c0-0.3,0.1-0.5,0.1-0.8L353.8,263.1z"/>
	<path fill="#FFFFFF" d="M345.9,239.7l2.5-1.4l-1-1.7l0.5-0.3c0.4,0.8,0.8,1.3,1.1,1.5c0.4,0.3,0.9,0.5,1.6,0.7l6.6,1.7
		c0.6,0.2,1.1,0.2,1.4,0.1c0.2-0.1,0.4-0.2,0.4-0.3c0-0.1-0.1-0.5-0.3-1l0.5-0.2l1.7,3.6c-0.8,0.6-1.4,1-1.9,1.1
		c-0.5,0.1-1.2,0-2.2-0.2l-7.6-1.9l-1.6,0.9l1.3,2.8l7.6,1.9l1.3-0.8l1.3,3l-2.6,1.9l-0.8-1.3l-7-1.8c-1-0.3-1.7-0.3-2.1-0.2
		c-0.3,0.1-0.4,0.2-0.5,0.4c0,0.2,0.1,0.5,0.3,1l-0.5,0.2l-1.7-3.5c0.8-0.7,1.4-1.1,1.8-1.2c0.4-0.1,0.9-0.1,1.5,0.1l0.5,0.1
		L345.9,239.7z"/>
	<path fill="#FFFFFF" d="M344.4,227.6l0.5-1.7l2.3,2.8l-0.2,0.6L344.4,227.6z M348.7,230.1l2.8-1.8l0.7,1.4l7.4,2.3
		c0.8,0.2,1.3,0.3,1.6,0.3c0.3-0.1,0.4-0.2,0.5-0.3c0-0.1,0-0.2,0-0.3c0-0.1-0.1-0.4-0.3-0.9l0.5-0.2l1.5,3.7
		c-0.7,0.6-1.4,0.9-1.9,0.9c-0.5,0.1-1.4-0.1-2.5-0.4l-7.6-2.4l-1.4,0.7L348.7,230.1z"/>
	<path fill="#FFFFFF" d="M355.3,221.4l-1.7-5.3c1.1-0.6,1.9-1,2.5-1.1s1.3,0,2.2,0.4l8,3c-0.1,0.8-0.1,1.6,0,2.4s0.3,1.7,0.7,2.9
		c-1.1,0.7-2,1.4-2.6,2.1s-1.1,1.6-1.5,2.6l-0.3-0.1c-0.1-0.4-0.2-0.7-0.4-1c-0.2-0.2-0.7-0.5-1.5-0.8l-6-2.3
		c-0.3-0.1-0.6-0.2-0.8-0.2c-0.2,0-0.5,0.1-1,0.2c-0.5,0.1-0.9,0.2-1.2,0.2c-0.3,0-0.7-0.1-1.1-0.2c-0.7-0.3-1.2-0.7-1.6-1.3
		c-0.4-0.6-0.7-1.6-0.9-3l0.5-0.2c0.3,1.2,0.8,1.9,1.4,2.1c0.2,0.1,0.4,0.1,0.6,0.1c0.3,0,0.7-0.2,1.3-0.4s1.2-0.4,1.8-0.4
		C354,221,354.6,221.1,355.3,221.4z M356,221.6l6.4,2.4l3-2.9l-7.5-2.8c-0.6-0.2-1.2-0.3-1.5-0.3c-0.4,0-0.8,0.3-1.4,0.7L356,221.6z
		"/>
	<path fill="#FFFFFF" d="M358.6,204.4l5.9-1.7l1.4,7.7l2.3,1.1l2.6-2.4l-0.5-2.7l0.6-0.1l1,5.5c-0.9,0.6-1.5,1.2-2,1.7
		c-0.5,0.5-1,1.2-1.7,2.1l-0.3-0.1c0-0.4-0.2-0.7-0.4-0.9s-0.7-0.5-1.6-0.9l-7.4-3.4c0.1-1,0.1-1.8,0.1-2.4
		C358.7,207.3,358.7,206.2,358.6,204.4z M359.2,207.1l0,0.2l5.9,2.7l-0.8-4.5L359.2,207.1z"/>
	<path fill="#FFFFFF" d="M365.5,191.4l3.3-0.6l0.6,2.8l-2.8,0.5l0.4,1.9l7.2,4l1.8-0.9l-0.3-1.8l0.5-0.1l0.8,4.6
		c-1,0.3-1.8,0.7-2.3,1c-0.5,0.3-1,0.7-1.5,1.2l-0.2-0.1c-0.1-0.5-0.2-0.9-0.4-1.1c-0.2-0.3-0.7-0.6-1.4-1l-5.1-2.8
		c-0.6-0.4-1.1-0.5-1.4-0.5c-0.3,0-0.5,0.1-0.6,0.3c-0.1,0.2-0.1,0.5,0.1,1.1l-0.6,0.1l-0.8-3.8c0.9-0.4,1.7-0.6,2.2-0.7
		c0.3,0,0.7,0.1,1.2,0.3L365.5,191.4z"/>
	<path fill="#FFFFFF" d="M376.6,183.7l3.3-1.7l4.9,3.4c-0.4,0.7-0.6,1.4-0.7,2.1c-0.1,0.7-0.1,1.6,0.1,2.7c-0.7,0.3-1.3,0.7-1.8,1
		c-0.4,0.3-0.8,0.7-1.1,1.2c-0.5,0.7-0.7,1.5-0.7,2.4c0,0.3,0,0.5-0.1,0.6c-0.1,0.1-0.2,0.1-0.3,0.2c-0.1,0-0.3,0-0.3,0
		c-0.1-0.1-0.2-0.2-0.2-0.5c0-0.2-0.1-0.5-0.2-0.9l-0.6-1.9l-1-2.9l-3.1,1.7l-4.4-3c0.3-1,0.5-1.8,0.5-2.5c0-0.7-0.1-1.4-0.4-2.2
		c1.1-0.7,1.9-1.3,2.5-1.8c0.4-0.4,0.8-0.7,1-1.1c0.3-0.4,0.4-0.9,0.4-1.2c0-0.4-0.1-0.6-0.4-0.8c-0.1-0.1-0.3-0.1-0.6-0.1
		c-0.5,0.1-0.9,0.1-1.1-0.1c-0.2-0.2-0.4-0.4-0.4-0.6c-0.1-0.2,0-0.4,0.1-0.6c0.1-0.2,0.4-0.3,0.7-0.4c0.3,0,0.6,0.1,1,0.3
		c0.3,0.2,0.6,0.5,0.8,0.9c0.2,0.4,0.5,0.9,0.7,1.7L376.6,183.7z M375.1,187.7l1.9-1l-1.7-4.9c-0.2,0.6-0.4,1.1-0.7,1.5
		c-0.7,1-1.6,1.7-2.9,2.1L375.1,187.7z M377.6,186.4l1.9,5.4c0.1-0.4,0.2-0.8,0.4-1.1s0.3-0.6,0.5-0.9c0.6-0.9,1.5-1.6,2.8-2.2
		l-3.4-2.3L377.6,186.4z"/>
	<path fill="#FFFFFF" d="M375.3,168.7l1.1-1.4l1.1,3.5l-0.4,0.5L375.3,168.7z M378.4,172.7l3.2-0.6l0.1,1.6l6,4.9
		c0.6,0.5,1.1,0.8,1.4,0.9c0.3,0.1,0.5,0,0.6-0.1c0.1-0.1,0.1-0.2,0.1-0.3c0-0.1,0-0.5,0-0.9l0.6,0l0,3.9c-0.9,0.2-1.6,0.3-2.1,0.2
		c-0.5-0.1-1.2-0.6-2.1-1.3l-6.1-5l-1.5,0.1L378.4,172.7z"/>
	<path fill="#FFFFFF" d="M379.4,163.9l11.5-2.1c-0.1-0.4-0.2-0.7-0.2-0.9s0.1-0.6,0.2-1l0.4,0.4c0,0.3,0.1,0.6,0.2,0.8
		c0.1,0.2,0.4,0.5,0.8,1l6.8,6.8c-0.5,1.2-0.9,2.1-1,2.7c-0.2,0.6-0.3,1.4-0.4,2.3c-1.3,0.3-2.4,0.6-3.3,1c-0.9,0.4-1.7,0.9-2.5,1.5
		l-0.2-0.2c0-0.4,0-0.8-0.2-1.1c-0.1-0.3-0.5-0.8-1.2-1.4l-5.2-5.3c0.7-1.2,1-2.1,1.1-2.8l-4.5,0.8L379.4,163.9z M391,164.7
		l-3.5,0.6c0,0.3-0.1,0.6-0.2,0.9l6.2,6.2l3.8-1.4L391,164.7z"/>
	<path fill="#FFFFFF" d="M402.5,151l0.5-0.1c0.1,0.9,0.2,1.6,0.3,2c0.1,0.4,0.4,0.9,0.9,1.5l3.6,4.9c0.6,0.8,1,1.3,1.3,1.4
		c0.3,0.1,0.5,0.1,0.6,0c0.1-0.1,0.2-0.1,0.2-0.3c0-0.1,0.1-0.3,0.2-0.7l0.5,0.2l-0.9,3.9c-0.9,0-1.6-0.1-2.1-0.4
		c-0.5-0.2-0.9-0.6-1.4-1.3l-1.4,5.3c-2.1-0.1-3.5-0.7-4.3-1.7c-0.5-0.7-0.9-1.5-1-2.3c-0.2-1.1-0.3-2.5-0.1-4.2l-3.6-1.9l-0.1-0.4
		c0.3-0.2,0.5-0.4,0.7-0.5c0.9-0.7,1.4-1.6,1.6-2.8c0.8-0.1,1.6-0.3,2.4-0.6c0.8-0.3,1.4-0.6,1.7-0.8c0.2-0.1,0.3-0.2,0.3-0.4
		S402.5,151.4,402.5,151z M401.3,155.3l-4.8,1.7l3.6,1.9l3.4-0.7L401.3,155.3z M403.8,158.7l-3.7,0.8c0.3,1.2,0.7,2.2,1.2,2.9
		c0.9,1.2,2.2,1.8,3.9,1.8l0.7-2.7L403.8,158.7z"/>
	<path fill="#FFFFFF" d="M404.2,143.4l11.6,1.6c0-0.4,0-0.7,0.1-0.9c0.1-0.2,0.3-0.5,0.5-0.8l0.3,0.5c-0.1,0.3-0.1,0.6,0,0.8
		c0,0.2,0.2,0.6,0.5,1.2l4.3,8.6c-0.9,0.9-1.5,1.7-1.8,2.3c-0.4,0.6-0.7,1.2-1.1,2.1c-1.3-0.2-2.5-0.2-3.4-0.1
		c-0.9,0.1-1.9,0.3-2.8,0.7l-0.1-0.2c0.2-0.4,0.2-0.8,0.2-1.1s-0.3-0.9-0.7-1.7l-3.4-6.6c1-0.9,1.6-1.7,1.9-2.3l-4.5-0.6
		L404.2,143.4z M415,147.8l-3.5-0.5c-0.1,0.3-0.3,0.6-0.5,0.8l4,7.8l4-0.2L415,147.8z"/>
	<path fill="#FFFFFF" d="M426.9,139.2l5.2,3.4l-4.9,6.1l0.7,2.5l3.5,0.4l1.7-2.1l0.5,0.3l-3.5,4.3c-1.1-0.2-1.9-0.4-2.6-0.4
		s-1.5,0-2.7,0.1l-0.1-0.3c0.3-0.3,0.4-0.6,0.4-0.9c0-0.3-0.1-0.9-0.3-1.8l-2.3-7.8c0.8-0.6,1.4-1.1,1.9-1.5
		C424.7,141.2,425.5,140.5,426.9,139.2z M425.2,141.4l-0.2,0.1l1.8,6.2l2.9-3.6L425.2,141.4z"/>
	<path fill="#FFFFFF" d="M467.9,131.5l0.6,0.2l-0.7,2.4l4.5-1.4c1.6,1.8,2.7,3.1,3.2,4c0.5,0.9,0.8,1.8,0.9,2.5
		c0.1,0.7-0.1,1.7-0.4,2.9l-2.4,8.7l-5.3,2.6c-1-0.8-1.9-1.4-2.6-1.8c-0.8-0.4-1.5-0.8-2.3-1.1l-1.5,5.6l-5.2-1.4l1.7-5.8
		c-1.4-0.3-2.6-0.4-3.6-0.3c-1,0.1-2,0.3-3.1,0.8l-0.3-0.6c1.6-1,3-1.7,4-1.9c1.1-0.3,2.3-0.4,3.7-0.3c0.3-1.2,0.5-2.3,0.4-3.1
		c-0.1-0.8-0.5-1.7-1.1-2.5c-0.6-0.8-1.5-1.6-2.7-2.3l0.2-0.6c0.7-0.1,1.4-0.3,2-0.5l4.2-1.3l0.3-1c0.2-0.9,0.3-1.6,0.3-2
		c-0.1-0.5-0.3-0.9-0.7-1.3c-0.4-0.4-0.9-0.7-1.5-0.9c-0.6-0.2-1.4-0.1-2.3,0.1l-0.2-0.5c0.8-0.4,1.6-0.7,2.2-0.8s1.4-0.1,2.2,0.2
		c0.8,0.2,1.5,0.6,2.1,1.2c0.6,0.5,0.9,1.1,1.1,1.7c0.1,0.6,0.1,1.4-0.1,2.2l1.9-0.6L467.9,131.5z M461.6,136.9L458,138
		c0.5,0.4,1,0.9,1.4,1.3c0.4,0.4,0.7,1,1.1,1.6L461.6,136.9z M466.8,135.2l-1.9,0.6l-5.5,19.7l1.6,0.5L466.8,135.2z M464,147.9
		c1.1,0.3,2.1,0.8,3,1.4c1,0.6,2,1.4,3.3,2.4l1.2-4.3l1.8-6.5c0.1-0.6,0.2-1.2,0.1-1.7c-0.1-0.6-0.4-1.3-1-2.1
		c-0.6-0.8-1.5-1.8-2.7-2.9l-2.2,0.6L464,147.9z"/>
	<path fill="#FFFFFF" d="M488,149.5l0.5,3.3l-2.8,0.5l-0.4-2.9l-1.9,0.4l-4.2,7.1l0.8,1.9l1.8-0.2l0.1,0.5l-4.6,0.6
		c-0.3-1-0.6-1.8-0.9-2.3c-0.3-0.5-0.7-1-1.1-1.5l0.1-0.2c0.5,0,0.9-0.2,1.2-0.4c0.3-0.2,0.6-0.7,1-1.4l3-5c0.4-0.6,0.6-1.1,0.5-1.4
		c0-0.3-0.1-0.5-0.3-0.6c-0.2-0.1-0.5-0.1-1.1,0.1l-0.1-0.6l3.9-0.7c0.4,0.9,0.6,1.7,0.6,2.2c0,0.3-0.1,0.7-0.4,1.2L488,149.5z"/>
	<path fill="#FFFFFF" d="M497.7,156.6l0.2,6.2l-7.8-0.5l-1.6,2l1.7,3.1l2.7,0.2l0,0.6l-5.6-0.4c-0.4-1-0.8-1.8-1.1-2.3
		c-0.3-0.6-0.9-1.3-1.6-2.2l0.2-0.3c0.4,0.1,0.7,0,0.9-0.1c0.3-0.2,0.7-0.6,1.3-1.3l5.1-6.3c0.9,0.3,1.7,0.6,2.3,0.7
		C494.9,156,496,156.3,497.7,156.6z M495,156.5l-0.2-0.1l-4.1,5l4.6,0.3L495,156.5z"/>
	<path fill="#FFFFFF" d="M504.6,170.4l1,3.6l-4.3,4.1c-0.6-0.5-1.2-0.9-1.9-1.2c-0.7-0.2-1.6-0.4-2.7-0.5c-0.2-0.8-0.4-1.4-0.6-1.9
		c-0.2-0.5-0.6-0.9-1-1.4c-0.6-0.6-1.4-1-2.2-1.2c-0.3,0-0.5-0.1-0.6-0.2c-0.1-0.1-0.1-0.2-0.1-0.3c0-0.1,0-0.3,0.1-0.3
		c0.1-0.1,0.3-0.1,0.5-0.1c0.2,0,0.5,0,0.9,0l2-0.2l3.1-0.4l-1-3.4l3.8-3.7c0.9,0.5,1.7,0.8,2.3,1c0.7,0.1,1.4,0.2,2.2,0.1
		c0.5,1.2,0.9,2.2,1.3,2.9c0.3,0.5,0.6,0.9,0.9,1.2c0.4,0.4,0.7,0.6,1.1,0.7c0.4,0.1,0.7,0,0.8-0.2c0.1-0.1,0.2-0.3,0.2-0.6
		c0-0.5,0.1-0.9,0.3-1.1c0.2-0.2,0.4-0.3,0.7-0.3c0.2,0,0.4,0.1,0.6,0.2c0.2,0.2,0.3,0.4,0.2,0.8s-0.2,0.6-0.5,0.9
		c-0.3,0.3-0.6,0.5-1,0.6c-0.4,0.1-1,0.3-1.8,0.3L504.6,170.4z M501.7,170.8l-5.7,0.7c0.4,0.2,0.7,0.4,1,0.6
		c0.3,0.2,0.5,0.4,0.7,0.6c0.7,0.8,1.3,1.8,1.5,3.2l3-2.8L501.7,170.8z M501,168.1l0.6,2.1l5.2-0.6c-0.6-0.3-1-0.7-1.3-1
		c-0.8-0.8-1.3-1.9-1.5-3.3L501,168.1z"/>
	<path fill="#FFFFFF" d="M521.1,173.9l-0.2,0.3c-0.8-0.3-1.4-0.4-1.9-0.4c-0.5,0.1-1.1,0.4-1.9,1l-4,3l5.5,1.5c0,1-0.1,1.8-0.3,2.4
		c-0.3,0.6-0.8,1.1-1.6,1.7l-6.9,5.2c-1.1-0.7-2-1.1-2.8-1.5c-0.6-0.3-1.3-0.4-2-0.6c0.1-1.1,0-2-0.2-2.9c-0.2-0.9-0.6-2-1.3-3.5
		l0.2-0.2c0.5,0.2,0.9,0.2,1.3,0c0.5-0.2,1.6-0.9,3.2-2.1l6.6-4.9c0.9-0.6,1.4-1.2,1.7-1.7c0.3-0.5,0.4-1,0.3-1.8l0.4,0
		c0.2,0.8,0.3,1.3,0.3,1.6c0,0.3,0,0.6-0.1,1c1.2,0.4,1.9,0.7,2.3,0.9C520.2,173.2,520.6,173.5,521.1,173.9z M506.9,182.5l1,3.8
		l6.4-4.8c0.6-0.4,1-0.8,1.1-1.1c0.1-0.3,0.2-0.7,0.2-1.3l-3.1-0.8L506.9,182.5z"/>
	<path fill="#FFFFFF" d="M523.5,186.6l-0.4,3.2l-1.5-0.4l-6.5,4.1c-0.7,0.4-1.1,0.8-1.2,1c-0.1,0.2-0.2,0.4-0.1,0.6
		c0.1,0.1,0.1,0.2,0.2,0.2c0.1,0.1,0.4,0.2,0.9,0.3l-0.2,0.5l-3.7-1.2c0.1-0.9,0.2-1.6,0.5-2.1c0.3-0.4,0.9-1,2-1.6l6.7-4.2l0.4-1.5
		L523.5,186.6z M528.2,185l1,1.5l-3.6-0.1l-0.3-0.5L528.2,185z"/>
	<path fill="#FFFFFF" d="M525.4,192.8l6.2,1.1l0.2,0.4l-3.5,1.8l1.4,2.5l-1.4,0.8l-1.4-2.5l-8.4,4.6l-0.3,2l1,0.5l-0.2,0.5l-3.7-1.5
		c0.4-1.5,0.5-2.9,0.2-4.3l0.2-0.1c0.4,0.2,0.8,0.3,1.1,0.3c0.4,0,0.9-0.2,1.5-0.5l7.2-3.9l-0.7-1.2L525.4,192.8z"/>
	<path fill="#FFFFFF" d="M534.2,206.5l-2.5,5.6l-6.8-3.9l-2.3,1.1l0.2,3.5l2.3,1.4l-0.3,0.5l-4.8-2.8c0.1-1.1,0.1-1.9,0-2.6
		c-0.1-0.6-0.2-1.5-0.5-2.7l0.3-0.1c0.3,0.2,0.6,0.3,0.9,0.3c0.3,0,0.9-0.2,1.7-0.6l7.4-3.5c0.7,0.7,1.3,1.2,1.8,1.7
		C531.9,204.7,532.8,205.4,534.2,206.5z M531.8,205.2l-0.2-0.1l-5.9,2.7l4,2.3L531.8,205.2z"/>
	<path fill="#FFFFFF" d="M539.8,220l-1.6,2.9l-2.5-1.3l1.5-2.5l-1.7-0.9l-7.7,3l-0.5,2l1.6,1l-0.3,0.5l-4-2.4c0.4-1,0.6-1.8,0.7-2.4
		c0.1-0.6,0.1-1.2,0-1.9l0.3-0.1c0.4,0.3,0.8,0.4,1.1,0.4c0.3,0,0.9-0.1,1.7-0.4l5.4-2.1c0.7-0.3,1.1-0.5,1.3-0.8
		c0.2-0.2,0.2-0.4,0.1-0.6c-0.1-0.2-0.4-0.4-0.9-0.6l0.3-0.5l3.5,1.8c-0.3,1-0.6,1.7-0.9,2.1c-0.2,0.3-0.5,0.5-1,0.7L539.8,220z"/>
	<path fill="#FFFFFF" d="M542.3,227.2l-1.2,3l-1.4-0.7l-7.3,2.4c-0.8,0.3-1.3,0.5-1.4,0.7c-0.2,0.2-0.3,0.4-0.2,0.5
		c0,0.1,0.1,0.2,0.2,0.2c0.1,0.1,0.4,0.3,0.8,0.5l-0.3,0.5l-3.3-2.1c0.3-0.9,0.6-1.5,1-1.9c0.4-0.4,1.2-0.7,2.3-1.1l7.6-2.5l0.7-1.4
		L542.3,227.2z M547.2,226.8l0.6,1.7l-3.5-0.9l-0.2-0.6L547.2,226.8z"/>
	<path fill="#FFFFFF" d="M546.4,243.5l-0.1,0.6c-0.9-0.3-1.6-0.4-2-0.5s-1,0.1-1.7,0.2l-5.8,1.6c-1,0.3-1.6,0.5-1.8,0.7
		c-0.2,0.2-0.3,0.4-0.2,0.6c0,0.1,0.1,0.2,0.2,0.3c0.1,0.1,0.3,0.2,0.6,0.5l-0.4,0.4l-3.3-2.3c0.4-0.8,0.7-1.4,1.1-1.8
		c0.4-0.4,0.9-0.6,1.7-0.9l-4.4-3.3c0.9-1.9,1.9-3,3.2-3.4c0.8-0.2,1.7-0.3,2.5-0.1c1.1,0.2,2.4,0.7,4,1.4l3.1-2.6l0.4,0.1
		c0.1,0.4,0.1,0.6,0.2,0.8c0.3,1.1,1,1.9,2,2.5c-0.2,0.8-0.3,1.6-0.3,2.4c0,0.9,0,1.5,0.1,1.9c0.1,0.2,0.1,0.3,0.2,0.4
		C545.7,243.3,546,243.4,546.4,243.5z"/>
	<path fill="#FFFFFF" d="M538.8,241.9l0.7-3.7c-1.3-0.2-2.3-0.2-3.2,0c-1.5,0.4-2.5,1.4-3.1,3l2.2,1.7L538.8,241.9z"/>
	<path fill="#FFFFFF" d="M542.7,240.7l0.2-5.1l-3.1,2.6l-0.6,3.4L542.7,240.7z"/>
	<path fill="#FFFFFF" d="M549.7,256.4l-1.7,2.3l1.6,1.1l-0.3,0.5c-0.7-0.5-1.3-0.8-1.6-0.9c-0.4-0.1-1-0.1-1.8,0.1l-6.7,1.3
		c-0.6,0.1-1.1,0.3-1.3,0.6c-0.2,0.2-0.2,0.3-0.2,0.5c0,0.1,0.3,0.4,0.7,0.8l-0.4,0.4l-3-2.5c0.4-0.9,0.8-1.5,1.3-1.8
		c0.4-0.3,1.1-0.6,2.1-0.8l7.7-1.5l1.1-1.5l-2.4-2l-7.7,1.5l-0.8,1.3l-2.5-2.1l1.5-2.9l1.2,0.9l7.1-1.4c1-0.2,1.7-0.4,2-0.7
		c0.2-0.2,0.3-0.4,0.3-0.5c0-0.2-0.3-0.4-0.7-0.7l0.4-0.4l3,2.5c-0.5,0.9-0.8,1.6-1.1,1.8c-0.3,0.3-0.8,0.5-1.4,0.6l-0.5,0.1
		L549.7,256.4z"/>
	<path fill="#FFFFFF" d="M551.7,273.7l-0.1,0.5c-0.9-0.4-1.5-0.6-1.9-0.7c-0.4-0.1-1-0.1-1.7,0l-6,0.8c-1,0.1-1.6,0.3-1.8,0.5
		c-0.2,0.2-0.3,0.4-0.3,0.6c0,0.1,0.1,0.2,0.1,0.3c0.1,0.1,0.2,0.2,0.6,0.5l-0.4,0.4l-3-2.7c0.5-0.8,0.9-1.3,1.3-1.6
		c0.4-0.3,1-0.5,1.8-0.7l-3.9-3.8c1.1-1.8,2.3-2.8,3.6-2.9c0.9-0.1,1.7,0,2.5,0.2c1.1,0.3,2.3,1,3.8,1.9l3.4-2.2l0.4,0.1
		c0,0.4,0.1,0.6,0.1,0.8c0.1,1.1,0.7,2,1.7,2.8c-0.3,0.7-0.5,1.5-0.7,2.4c-0.1,0.8-0.2,1.5-0.1,1.9c0,0.2,0.1,0.3,0.2,0.4
		S551.4,273.5,551.7,273.7z M544.4,271.1l1.1-3.6c-1.2-0.4-2.3-0.5-3.1-0.4c-1.5,0.2-2.7,1.1-3.5,2.6l2,1.9L544.4,271.1z
		 M548.6,270.5l0.8-5l-3.4,2.2l-1.4,3.3L548.6,270.5z"/>
	<path fill="none" stroke="#000000" stroke-width="0.5558" d="M351.3,270.1c-0.6-0.7-1.1-1.2-1.7-1.5c-0.6-0.3-1.6-0.5-3.1-0.8
		l-4.2-0.7c-1.1-0.2-1.8-0.3-2.1-0.4c-0.3-0.1-0.7-0.3-1.1-0.6c-0.7-0.5-1.5-1.4-2.6-2.6c0.6,1.6,1.3,2.9,1.9,4
		c0.7,1,1.5,1.9,2.7,2.7c1.1,0.8,2.4,1.3,3.9,1.5c1.3,0.2,2.5,0.2,3.7-0.2C349.7,271.1,350.5,270.7,351.3,270.1z M353.8,263.1
		c-0.1-0.7-0.2-1.3-0.4-1.9c-0.2-0.8-0.6-1.8-1.2-2.9l-12.6-2l-1.4,1.4l1.5,1.9l-0.5,0.4l-3.3-4l2.6-2.7l-1.3-1.8l0.5-0.4
		c0.9,1,1.5,1.6,1.9,1.9c0.4,0.3,1.1,0.5,2,0.6l10,1.6c1.4,0.2,2.3,0.2,2.7,0.1c0.4-0.2,0.6-0.4,0.7-0.7c0-0.2-0.1-0.5-0.3-0.8
		l0.9-0.1l1.9,3.3c-0.6,0.7-1.2,1.2-1.7,1.4c-0.5,0.2-1.4,0.2-2.5,0.1c1.2,1.7,2,3.3,2.4,4.7s0.5,2.9,0.2,4.5
		c-0.5,2.9-1.8,4.9-4.1,6.1c-1.7,0.9-3.6,1.2-5.6,0.9c-1.5-0.2-2.8-0.8-4-1.6c-1.2-0.9-2.3-2-3.3-3.6c-0.7-1-1.3-2.4-2-4
		c0.1,1.2,0.1,2.1,0,2.7c-0.1,0.4-0.2,0.9-0.3,1.4s-0.2,0.9-0.3,1.3c-0.1,0.8,0,1.4,0.4,2c0.4,0.5,1,0.9,1.9,1
		c0.3,0,0.7,0.1,1.2,0.1l-0.1,0.6c-0.7,0-1.2,0-1.7-0.1c-1.5-0.2-2.6-0.8-3.4-1.7c-0.8-0.9-1.1-1.9-0.9-3c0-0.3,0.1-0.6,0.2-0.8
		c0.1-0.2,0.3-0.7,0.8-1.6c0.5-0.9,0.8-1.7,0.9-2.5c0.1-0.7,0.1-1.3-0.1-2c-0.1-0.3-0.3-0.7-0.6-1.2l0.1-0.7l0.4,0.1l0.9,0.8
		c0.5,0.7,1,1.2,1.5,1.4c0.5,0.2,1.4,0.5,2.9,0.7l6.5,1c0.7,0.1,1.2,0.2,1.6,0.4c0.4,0.2,0.8,0.5,1.2,1c0.5,0.6,1.2,1.7,2,3.3
		c0.6-0.6,1-1.2,1.3-1.7c0.3-0.6,0.5-1.2,0.6-2c0-0.3,0.1-0.5,0.1-0.8L353.8,263.1z"/>
	<path fill="none" stroke="#000000" stroke-width="0.5558" d="M345.9,239.7l2.5-1.4l-1-1.7l0.5-0.3c0.4,0.8,0.8,1.3,1.1,1.5
		c0.4,0.3,0.9,0.5,1.6,0.7l6.6,1.7c0.6,0.2,1.1,0.2,1.4,0.1c0.2-0.1,0.4-0.2,0.4-0.3c0-0.1-0.1-0.5-0.3-1l0.5-0.2l1.7,3.6
		c-0.8,0.6-1.4,1-1.9,1.1c-0.5,0.1-1.2,0-2.2-0.2l-7.6-1.9l-1.6,0.9l1.3,2.8l7.6,1.9l1.3-0.8l1.3,3l-2.6,1.9l-0.8-1.3l-7-1.8
		c-1-0.3-1.7-0.3-2.1-0.2c-0.3,0.1-0.4,0.2-0.5,0.4c0,0.2,0.1,0.5,0.3,1l-0.5,0.2l-1.7-3.5c0.8-0.7,1.4-1.1,1.8-1.2
		c0.4-0.1,0.9-0.1,1.5,0.1l0.5,0.1L345.9,239.7z"/>
	<path fill="none" stroke="#000000" stroke-width="0.5558" d="M344.4,227.6l0.5-1.7l2.3,2.8l-0.2,0.6L344.4,227.6z M348.7,230.1
		l2.8-1.8l0.7,1.4l7.4,2.3c0.8,0.2,1.3,0.3,1.6,0.3c0.3-0.1,0.4-0.2,0.5-0.3c0-0.1,0-0.2,0-0.3c0-0.1-0.1-0.4-0.3-0.9l0.5-0.2
		l1.5,3.7c-0.7,0.6-1.4,0.9-1.9,0.9c-0.5,0.1-1.4-0.1-2.5-0.4l-7.6-2.4l-1.4,0.7L348.7,230.1z"/>
	<path fill="#FFFFFF" stroke="#000000" stroke-width="0.5558" d="M351.3,270.1c-0.6-0.7-1.1-1.2-1.7-1.5c-0.6-0.3-1.6-0.5-3.1-0.8
		l-4.2-0.7c-1.1-0.2-1.8-0.3-2.1-0.4c-0.3-0.1-0.7-0.3-1.1-0.6c-0.7-0.5-1.5-1.4-2.6-2.6c0.6,1.6,1.3,2.9,1.9,4
		c0.7,1,1.5,1.9,2.7,2.7c1.1,0.8,2.4,1.3,3.9,1.5c1.3,0.2,2.5,0.2,3.7-0.2C349.7,271.1,350.5,270.7,351.3,270.1z M353.8,263.1
		c-0.1-0.7-0.2-1.3-0.4-1.9c-0.2-0.8-0.6-1.8-1.2-2.9l-12.6-2l-1.4,1.4l1.5,1.9l-0.5,0.4l-3.3-4l2.6-2.7l-1.3-1.8l0.5-0.4
		c0.9,1,1.5,1.6,1.9,1.9c0.4,0.3,1.1,0.5,2,0.6l10,1.6c1.4,0.2,2.3,0.2,2.7,0.1c0.4-0.2,0.6-0.4,0.7-0.7c0-0.2-0.1-0.5-0.3-0.8
		l0.9-0.1l1.9,3.3c-0.6,0.7-1.2,1.2-1.7,1.4c-0.5,0.2-1.4,0.2-2.5,0.1c1.2,1.7,2,3.3,2.4,4.7s0.5,2.9,0.2,4.5
		c-0.5,2.9-1.8,4.9-4.1,6.1c-1.7,0.9-3.6,1.2-5.6,0.9c-1.5-0.2-2.8-0.8-4-1.6c-1.2-0.9-2.3-2-3.3-3.6c-0.7-1-1.3-2.4-2-4
		c0.1,1.2,0.1,2.1,0,2.7c-0.1,0.4-0.2,0.9-0.3,1.4s-0.2,0.9-0.3,1.3c-0.1,0.8,0,1.4,0.4,2c0.4,0.5,1,0.9,1.9,1
		c0.3,0,0.7,0.1,1.2,0.1l-0.1,0.6c-0.7,0-1.2,0-1.7-0.1c-1.5-0.2-2.6-0.8-3.4-1.7c-0.8-0.9-1.1-1.9-0.9-3c0-0.3,0.1-0.6,0.2-0.8
		c0.1-0.2,0.3-0.7,0.8-1.6c0.5-0.9,0.8-1.7,0.9-2.5c0.1-0.7,0.1-1.3-0.1-2c-0.1-0.3-0.3-0.7-0.6-1.2l0.1-0.7l0.4,0.1l0.9,0.8
		c0.5,0.7,1,1.2,1.5,1.4c0.5,0.2,1.4,0.5,2.9,0.7l6.5,1c0.7,0.1,1.2,0.2,1.6,0.4c0.4,0.2,0.8,0.5,1.2,1c0.5,0.6,1.2,1.7,2,3.3
		c0.6-0.6,1-1.2,1.3-1.7c0.3-0.6,0.5-1.2,0.6-2c0-0.3,0.1-0.5,0.1-0.8L353.8,263.1z"/>
	<path fill="#FFFFFF" stroke="#000000" stroke-width="0.5558" d="M345.9,239.7l2.5-1.4l-1-1.7l0.5-0.3c0.4,0.8,0.8,1.3,1.1,1.5
		c0.4,0.3,0.9,0.5,1.6,0.7l6.6,1.7c0.6,0.2,1.1,0.2,1.4,0.1c0.2-0.1,0.4-0.2,0.4-0.3c0-0.1-0.1-0.5-0.3-1l0.5-0.2l1.7,3.6
		c-0.8,0.6-1.4,1-1.9,1.1c-0.5,0.1-1.2,0-2.2-0.2l-7.6-1.9l-1.6,0.9l1.3,2.8l7.6,1.9l1.3-0.8l1.3,3l-2.6,1.9l-0.8-1.3l-7-1.8
		c-1-0.3-1.7-0.3-2.1-0.2c-0.3,0.1-0.4,0.2-0.5,0.4c0,0.2,0.1,0.5,0.3,1l-0.5,0.2l-1.7-3.5c0.8-0.7,1.4-1.1,1.8-1.2
		c0.4-0.1,0.9-0.1,1.5,0.1l0.5,0.1L345.9,239.7z"/>
	<path fill="#FFFFFF" stroke="#000000" stroke-width="0.5558" d="M344.4,227.6l0.5-1.7l2.3,2.8l-0.2,0.6L344.4,227.6z M348.7,230.1
		l2.8-1.8l0.7,1.4l7.4,2.3c0.8,0.2,1.3,0.3,1.6,0.3c0.3-0.1,0.4-0.2,0.5-0.3c0-0.1,0-0.2,0-0.3c0-0.1-0.1-0.4-0.3-0.9l0.5-0.2
		l1.5,3.7c-0.7,0.6-1.4,0.9-1.9,0.9c-0.5,0.1-1.4-0.1-2.5-0.4l-7.6-2.4l-1.4,0.7L348.7,230.1z"/>
	<path fill="#FFFFFF" stroke="#000000" stroke-width="0.5558" d="M354.4,218.5c0.6-0.3,1.1-3.4,1.7-3.5s1.3,0,2.2,0.4l8,3
		c-0.1,0.8-0.1,1.6,0,2.4s0.3,1.7,0.7,2.9c-1.1,0.7-2,1.4-2.6,2.1s-1.1,1.6-1.5,2.6l-0.3-0.1c-0.1-0.4-0.2-0.7-0.4-1
		c-0.2-0.2-0.7-0.5-1.5-0.8l-6-2.3c-0.3-0.1-0.6-0.2-0.8-0.2c-0.2,0-0.5,0.1-1,0.2c-0.5,0.1-0.9,0.2-1.2,0.2c-0.3,0-0.7-0.1-1.1-0.2
		c-0.7-0.3-1.2-0.7-1.6-1.3c-0.4-0.6-0.7-1.6-0.9-3l0.5-0.2c0.3,1.2,0.8,1.9,1.4,2.1c0.2,0.1,0.4,0.1,0.6,0.1c0.3,0,0.7-0.2,1.3-0.4
		s1.2-0.4,1.8-0.4c0.4,0,1,0.1,1.8,0.4"/>
	<path fill="#FFFFFF" stroke="#000000" stroke-width="0.5558" d="M358.6,204.4l5.9-1.7l1.4,7.7l2.3,1.1l2.6-2.4l-0.5-2.7l0.6-0.1
		l1,5.5c-0.9,0.6-1.5,1.2-2,1.7c-0.5,0.5-1,1.2-1.7,2.1l-0.3-0.1c0-0.4-0.2-0.7-0.4-0.9s-0.7-0.5-1.6-0.9l-7.4-3.4
		c0.1-1,0.1-1.8,0.1-2.4C358.7,207.3,358.7,206.2,358.6,204.4z M359.2,207.1l0,0.2l5.9,2.7l-0.8-4.5L359.2,207.1z"/>
	<path fill="#FFFFFF" stroke="#000000" stroke-width="0.5558" d="M365.5,191.4l3.3-0.6l0.6,2.8l-2.8,0.5l0.4,1.9l7.2,4l1.8-0.9
		l-0.3-1.8l0.5-0.1l0.8,4.6c-1,0.3-1.8,0.7-2.3,1c-0.5,0.3-1,0.7-1.5,1.2l-0.2-0.1c-0.1-0.5-0.2-0.9-0.4-1.1c-0.2-0.3-0.7-0.6-1.4-1
		l-5.1-2.8c-0.6-0.4-1.1-0.5-1.4-0.5c-0.3,0-0.5,0.1-0.6,0.3c-0.1,0.2-0.1,0.5,0.1,1.1l-0.6,0.1l-0.8-3.8c0.9-0.4,1.7-0.6,2.2-0.7
		c0.3,0,0.7,0.1,1.2,0.3L365.5,191.4z"/>
	<path fill="#FFFFFF" stroke="#000000" stroke-width="0.5558" d="M376.6,183.7l3.3-1.7l4.9,3.4c-0.4,0.7-0.6,1.4-0.7,2.1
		c-0.1,0.7-0.1,1.6,0.1,2.7c-0.7,0.3-1.3,0.7-1.8,1c-0.4,0.3-0.8,0.7-1.1,1.2c-0.5,0.7-0.7,1.5-0.7,2.4c0,0.3,0,0.5-0.1,0.6
		c-0.1,0.1-0.2,0.1-0.3,0.2c-0.1,0-0.3,0-0.3,0c-0.1-0.1-0.2-0.2-0.2-0.5c0-0.2-0.1-0.5-0.2-0.9l-0.6-1.9l-1-2.9l-3.1,1.7l-4.4-3
		c0.3-1,0.5-1.8,0.5-2.5c0-0.7-0.1-1.4-0.4-2.2c1.1-0.7,1.9-1.3,2.5-1.8c0.4-0.4,0.8-0.7,1-1.1c0.3-0.4,0.4-0.9,0.4-1.2
		c0-0.4-0.1-0.6-0.4-0.8c-0.1-0.1-0.3-0.1-0.6-0.1c-0.5,0.1-0.9,0.1-1.1-0.1c-0.2-0.2-0.4-0.4-0.4-0.6c-0.1-0.2,0-0.4,0.1-0.6
		c0.1-0.2,0.4-0.3,0.7-0.4c0.3,0,0.6,0.1,1,0.3c0.3,0.2,0.6,0.5,0.8,0.9c0.2,0.4,0.5,0.9,0.7,1.7L376.6,183.7z M375.1,187.7l1.9-1
		l-1.7-4.9c-0.2,0.6-0.4,1.1-0.7,1.5c-0.7,1-1.6,1.7-2.9,2.1L375.1,187.7z M377.6,186.4l1.9,5.4c0.1-0.4,0.2-0.8,0.4-1.1
		s0.3-0.6,0.5-0.9c0.6-0.9,1.5-1.6,2.8-2.2l-3.4-2.3L377.6,186.4z"/>
	<path fill="#FFFFFF" stroke="#000000" stroke-width="0.5558" d="M375.3,168.7l1.1-1.4l1.1,3.5l-0.4,0.5L375.3,168.7z M378.4,172.7
		l3.2-0.6l0.1,1.6l6,4.9c0.6,0.5,1.1,0.8,1.4,0.9c0.3,0.1,0.5,0,0.6-0.1c0.1-0.1,0.1-0.2,0.1-0.3c0-0.1,0-0.5,0-0.9l0.6,0l0,3.9
		c-0.9,0.2-1.6,0.3-2.1,0.2c-0.5-0.1-1.2-0.6-2.1-1.3l-6.1-5l-1.5,0.1L378.4,172.7z"/>
	<path fill="#FFFFFF" stroke="#000000" stroke-width="0.5558" d="M379.4,163.9l11.5-2.1c-0.1-0.4-0.2-0.7-0.2-0.9s0.1-0.6,0.2-1
		l0.4,0.4c0,0.3,0.1,0.6,0.2,0.8c0.1,0.2,0.4,0.5,0.8,1l6.8,6.8c-0.5,1.2-0.9,2.1-1,2.7c-0.2,0.6-0.3,1.4-0.4,2.3
		c-1.3,0.3-2.4,0.6-3.3,1c-0.9,0.4-1.7,0.9-2.5,1.5l-0.2-0.2c0-0.4,0-0.8-0.2-1.1c-0.1-0.3-0.5-0.8-1.2-1.4l-5.2-5.3
		c0.7-1.2,1-2.1,1.1-2.8l-4.5,0.8L379.4,163.9z M391,164.7l-3.5,0.6c0,0.3-0.1,0.6-0.2,0.9l6.2,6.2l3.8-1.4L391,164.7z"/>
	<path fill="#FFFFFF" stroke="#000000" stroke-width="0.5558" d="M404.2,143.4l11.6,1.6c0-0.4,0-0.7,0.1-0.9
		c0.1-0.2,0.3-0.5,0.5-0.8l0.3,0.5c-0.1,0.3-0.1,0.6,0,0.8c0,0.2,0.2,0.6,0.5,1.2l4.3,8.6c-0.9,0.9-1.5,1.7-1.8,2.3
		c-0.4,0.6-0.7,1.2-1.1,2.1c-1.3-0.2-2.5-0.2-3.4-0.1c-0.9,0.1-1.9,0.3-2.8,0.7l-0.1-0.2c0.2-0.4,0.2-0.8,0.2-1.1s-0.3-0.9-0.7-1.7
		l-3.4-6.6c1-0.9,1.6-1.7,1.9-2.3l-4.5-0.6L404.2,143.4z M415,147.8l-3.5-0.5c-0.1,0.3-0.3,0.6-0.5,0.8l4,7.8l4-0.2L415,147.8z"/>
	<path fill="#FFFFFF" stroke="#000000" stroke-width="0.5558" d="M426.9,139.2l5.2,3.4l-4.9,6.1l0.7,2.5l3.5,0.4l1.7-2.1l0.5,0.3
		l-3.5,4.3c-1.1-0.2-1.9-0.4-2.6-0.4s-1.5,0-2.7,0.1l-0.1-0.3c0.3-0.3,0.4-0.6,0.4-0.9c0-0.3-0.1-0.9-0.3-1.8l-2.3-7.8
		c0.8-0.6,1.4-1.1,1.9-1.5C424.7,141.2,425.5,140.5,426.9,139.2z M425.2,141.4l-0.2,0.1l1.8,6.2l2.9-3.6L425.2,141.4z"/>
	<path fill="#FFFFFF" stroke="#000000" stroke-width="0.5558" d="M467.9,131.5l0.6,0.2l-0.7,2.4l4.5-1.4c1.6,1.8,2.7,3.1,3.2,4
		c0.5,0.9,0.8,1.8,0.9,2.5c0.1,0.7-0.1,1.7-0.4,2.9l-2.4,8.7l-5.3,2.6c-1-0.8-1.9-1.4-2.6-1.8c-0.8-0.4-1.5-0.8-2.3-1.1l-1.5,5.6
		l-5.2-1.4l1.7-5.8c-1.4-0.3-2.6-0.4-3.6-0.3c-1,0.1-2,0.3-3.1,0.8l-0.3-0.6c1.6-1,3-1.7,4-1.9c1.1-0.3,2.3-0.4,3.7-0.3
		c0.3-1.2,0.5-2.3,0.4-3.1c-0.1-0.8-0.5-1.7-1.1-2.5c-0.6-0.8-1.5-1.6-2.7-2.3l0.2-0.6c0.7-0.1,1.4-0.3,2-0.5l4.2-1.3l0.3-1
		c0.2-0.9,0.3-1.6,0.3-2c-0.1-0.5-0.3-0.9-0.7-1.3c-0.4-0.4-0.9-0.7-1.5-0.9c-0.6-0.2-1.4-0.1-2.3,0.1l-0.2-0.5
		c0.8-0.4,1.6-0.7,2.2-0.8s1.4-0.1,2.2,0.2c0.8,0.2,1.5,0.6,2.1,1.2c0.6,0.5,0.9,1.1,1.1,1.7c0.1,0.6,0.1,1.4-0.1,2.2l1.9-0.6
		L467.9,131.5z M461.6,136.9L458,138c0.5,0.4,1,0.9,1.4,1.3c0.4,0.4,0.7,1,1.1,1.6L461.6,136.9z M466.8,135.2l-1.9,0.6l-5.5,19.7
		l1.6,0.5L466.8,135.2z M464,147.9c1.1,0.3,2.1,0.8,3,1.4c1,0.6,2,1.4,3.3,2.4l1.2-4.3l1.8-6.5c0.1-0.6,0.2-1.2,0.1-1.7
		c-0.1-0.6-0.4-1.3-1-2.1c-0.6-0.8-1.5-1.8-2.7-2.9l-2.2,0.6L464,147.9z"/>
	<path fill="#FFFFFF" stroke="#000000" stroke-width="0.5558" d="M488,149.5l0.5,3.3l-2.8,0.5l-0.4-2.9l-1.9,0.4l-4.2,7.1l0.8,1.9
		l1.8-0.2l0.1,0.5l-4.6,0.6c-0.3-1-0.6-1.8-0.9-2.3c-0.3-0.5-0.7-1-1.1-1.5l0.1-0.2c0.5,0,0.9-0.2,1.2-0.4c0.3-0.2,0.6-0.7,1-1.4
		l3-5c0.4-0.6,0.6-1.1,0.5-1.4c0-0.3-0.1-0.5-0.3-0.6c-0.2-0.1-0.5-0.1-1.1,0.1l-0.1-0.6l3.9-0.7c0.4,0.9,0.6,1.7,0.6,2.2
		c0,0.3-0.1,0.7-0.4,1.2L488,149.5z"/>
	<path fill="#FFFFFF" stroke="#000000" stroke-width="0.5558" d="M497.7,156.6l0.2,6.2l-7.8-0.5l-1.6,2l1.7,3.1l2.7,0.2l0,0.6
		l-5.6-0.4c-0.4-1-0.8-1.8-1.1-2.3c-0.3-0.6-0.9-1.3-1.6-2.2l0.2-0.3c0.4,0.1,0.7,0,0.9-0.1c0.3-0.2,0.7-0.6,1.3-1.3l5.1-6.3
		c0.9,0.3,1.7,0.6,2.3,0.7C494.9,156,496,156.3,497.7,156.6z M495,156.5l-0.2-0.1l-4.1,5l4.6,0.3L495,156.5z"/>
	<path fill="#FFFFFF" stroke="#000000" stroke-width="0.5558" d="M504.6,170.4l1,3.6l-4.3,4.1c-0.6-0.5-1.2-0.9-1.9-1.2
		c-0.7-0.2-1.6-0.4-2.7-0.5c-0.2-0.8-0.4-1.4-0.6-1.9c-0.2-0.5-0.6-0.9-1-1.4c-0.6-0.6-1.4-1-2.2-1.2c-0.3,0-0.5-0.1-0.6-0.2
		c-0.1-0.1-0.1-0.2-0.1-0.3c0-0.1,0-0.3,0.1-0.3c0.1-0.1,0.3-0.1,0.5-0.1c0.2,0,0.5,0,0.9,0l2-0.2l3.1-0.4l-1-3.4l3.8-3.7
		c0.9,0.5,1.7,0.8,2.3,1c0.7,0.1,1.4,0.2,2.2,0.1c0.5,1.2,0.9,2.2,1.3,2.9c0.3,0.5,0.6,0.9,0.9,1.2c0.4,0.4,0.7,0.6,1.1,0.7
		c0.4,0.1,0.7,0,0.8-0.2c0.1-0.1,0.2-0.3,0.2-0.6c0-0.5,0.1-0.9,0.3-1.1c0.2-0.2,0.4-0.3,0.7-0.3c0.2,0,0.4,0.1,0.6,0.2
		c0.2,0.2,0.3,0.4,0.2,0.8s-0.2,0.6-0.5,0.9c-0.3,0.3-0.6,0.5-1,0.6c-0.4,0.1-1,0.3-1.8,0.3L504.6,170.4z M501.7,170.8l-5.7,0.7
		c0.4,0.2,0.7,0.4,1,0.6c0.3,0.2,0.5,0.4,0.7,0.6c0.7,0.8,1.3,1.8,1.5,3.2l3-2.8L501.7,170.8z M501,168.1l0.6,2.1l5.2-0.6
		c-0.6-0.3-1-0.7-1.3-1c-0.8-0.8-1.3-1.9-1.5-3.3L501,168.1z"/>
	<path fill="#FFFFFF" stroke="#000000" stroke-width="0.5558" d="M521.1,173.9l-0.2,0.3c-0.8-0.3-1.4-0.4-1.9-0.4
		c-0.5,0.1-1.1,0.4-1.9,1l-4,3l5.5,1.5c0,1-0.1,1.8-0.3,2.4c-0.3,0.6-0.8,1.1-1.6,1.7l-6.9,5.2c-1.1-0.7-2-1.1-2.8-1.5
		c-0.6-0.3-1.3-0.4-2-0.6c0.1-1.1,0-2-0.2-2.9c-0.2-0.9-0.6-2-1.3-3.5l0.2-0.2c0.5,0.2,0.9,0.2,1.3,0c0.5-0.2,1.6-0.9,3.2-2.1
		l6.6-4.9c0.9-0.6,1.4-1.2,1.7-1.7c0.3-0.5,0.4-1,0.3-1.8l0.4,0c0.2,0.8,0.3,1.3,0.3,1.6c0,0.3,0,0.6-0.1,1c1.2,0.4,1.9,0.7,2.3,0.9
		C520.2,173.2,520.6,173.5,521.1,173.9z M506.9,182.5l1,3.8l6.4-4.8c0.6-0.4,1-0.8,1.1-1.1c0.1-0.3,0.2-0.7,0.2-1.3l-3.1-0.8
		L506.9,182.5z"/>
	<path fill="#FFFFFF" stroke="#000000" stroke-width="0.5558" d="M523.5,186.6l-0.4,3.2l-1.5-0.4l-6.5,4.1c-0.7,0.4-1.1,0.8-1.2,1
		c-0.1,0.2-0.2,0.4-0.1,0.6c0.1,0.1,0.1,0.2,0.2,0.2c0.1,0.1,0.4,0.2,0.9,0.3l-0.2,0.5l-3.7-1.2c0.1-0.9,0.2-1.6,0.5-2.1
		c0.3-0.4,0.9-1,2-1.6l6.7-4.2l0.4-1.5L523.5,186.6z M528.2,185l1,1.5l-3.6-0.1l-0.3-0.5L528.2,185z"/>
	<path fill="#FFFFFF" stroke="#000000" stroke-width="0.5558" d="M525.4,192.8l6.2,1.1l0.2,0.4l-3.5,1.8l1.4,2.5l-1.4,0.8l-1.4-2.5
		l-8.4,4.6l-0.3,2l1,0.5l-0.2,0.5l-3.7-1.5c0.4-1.5,0.5-2.9,0.2-4.3l0.2-0.1c0.4,0.2,0.8,0.3,1.1,0.3c0.4,0,0.9-0.2,1.5-0.5l7.2-3.9
		l-0.7-1.2L525.4,192.8z"/>
	<path fill="#FFFFFF" stroke="#000000" stroke-width="0.5558" d="M534.2,206.5l-2.5,5.6l-6.8-3.9l-2.3,1.1l0.2,3.5l2.3,1.4l-0.3,0.5
		l-4.8-2.8c0.1-1.1,0.1-1.9,0-2.6c-0.1-0.6-0.2-1.5-0.5-2.7l0.3-0.1c0.3,0.2,0.6,0.3,0.9,0.3c0.3,0,0.9-0.2,1.7-0.6l7.4-3.5
		c0.7,0.7,1.3,1.2,1.8,1.7C531.9,204.7,532.8,205.4,534.2,206.5z M531.8,205.2l-0.2-0.1l-5.9,2.7l4,2.3L531.8,205.2z"/>
	<path fill="#FFFFFF" stroke="#000000" stroke-width="0.5558" d="M539.8,220l-1.6,2.9l-2.5-1.3l1.5-2.5l-1.7-0.9l-7.7,3l-0.5,2
		l1.6,1l-0.3,0.5l-4-2.4c0.4-1,0.6-1.8,0.7-2.4c0.1-0.6,0.1-1.2,0-1.9l0.3-0.1c0.4,0.3,0.8,0.4,1.1,0.4c0.3,0,0.9-0.1,1.7-0.4
		l5.4-2.1c0.7-0.3,1.1-0.5,1.3-0.8c0.2-0.2,0.2-0.4,0.1-0.6c-0.1-0.2-0.4-0.4-0.9-0.6l0.3-0.5l3.5,1.8c-0.3,1-0.6,1.7-0.9,2.1
		c-0.2,0.3-0.5,0.5-1,0.7L539.8,220z"/>
	<path fill="#FFFFFF" stroke="#000000" stroke-width="0.5558" d="M542.3,227.2l-1.2,3l-1.4-0.7l-7.3,2.4c-0.8,0.3-1.3,0.5-1.4,0.7
		c-0.2,0.2-0.3,0.4-0.2,0.5c0,0.1,0.1,0.2,0.2,0.2c0.1,0.1,0.4,0.3,0.8,0.5l-0.3,0.5l-3.3-2.1c0.3-0.9,0.6-1.5,1-1.9
		c0.4-0.4,1.2-0.7,2.3-1.1l7.6-2.5l0.7-1.4L542.3,227.2z M547.2,226.8l0.6,1.7l-3.5-0.9l-0.2-0.6L547.2,226.8z"/>
	<path fill="#FFFFFF" stroke="#000000" stroke-width="0.5558" d="M542.7,234.8l0.5,0.1c0.1,0.4,0.2,0.6,0.2,0.8
		c0.3,1.1,1.1,1.9,2.1,2.4c-0.2,0.8-0.2,1.6-0.2,2.5c0,0.9,0.1,1.5,0.2,1.9c0.1,0.2,0.1,0.3,0.2,0.4c0.1,0.1,0.3,0.2,0.7,0.3l0,0.6
		c-0.9-0.2-1.6-0.4-2-0.4c-0.4,0-1,0.1-1.7,0.3l-5.8,1.9c-1,0.3-1.5,0.6-1.7,0.8c-0.2,0.2-0.3,0.4-0.2,0.6c0,0.1,0.1,0.2,0.2,0.3
		c0.1,0.1,0.3,0.2,0.6,0.4l-0.3,0.5l-3.4-2.1c0.3-0.9,0.7-1.5,1-1.8c0.4-0.4,0.9-0.7,1.7-1l-4.6-3.1c0.8-2,1.8-3.1,3-3.5
		c0.8-0.3,1.7-0.3,2.5-0.2c1.1,0.1,2.5,0.5,4.1,1.2 M538.8,241.9l0.5-3.8c-1.3-0.1-2.3-0.1-3.1,0.2c-1.5,0.5-2.5,1.5-3,3.1l2.3,1.5
		L538.8,241.9z M539.5,237.6l-0.6,4.3l4.1-1.3l-0.1-5.8"/>
	<path fill="#FFFFFF" stroke="#000000" stroke-width="0.5558" d="M549.7,256.4l-1.7,2.3l1.6,1.1l-0.3,0.5c-0.7-0.5-1.3-0.8-1.6-0.9
		c-0.4-0.1-1-0.1-1.8,0.1l-6.7,1.3c-0.6,0.1-1.1,0.3-1.3,0.6c-0.2,0.2-0.2,0.3-0.2,0.5c0,0.1,0.3,0.4,0.7,0.8l-0.4,0.4l-3-2.5
		c0.4-0.9,0.8-1.5,1.3-1.8c0.4-0.3,1.1-0.6,2.1-0.8l7.7-1.5l1.1-1.5l-2.4-2l-7.7,1.5l-0.8,1.3l-2.5-2.1l1.5-2.9l1.2,0.9l7.1-1.4
		c1-0.2,1.7-0.4,2-0.7c0.2-0.2,0.3-0.4,0.3-0.5c0-0.2-0.3-0.4-0.7-0.7l0.4-0.4l3,2.5c-0.5,0.9-0.8,1.6-1.1,1.8
		c-0.3,0.3-0.8,0.5-1.4,0.6l-0.5,0.1L549.7,256.4z"/>
	<path fill="none" stroke="#000000" stroke-width="0.5558" d="M355.3,221.4l6.3,2.3l3.1-2.7l-7.5-2.8c-0.6-0.2-1.2-0.3-1.5-0.3
		c-0.4,0-0.8,0.3-1.4,0.7"/>
	<path fill="none" stroke="#000000" stroke-width="0.5558" d="M358.6,204.4l5.9-1.7l1.4,7.7l2.3,1.1l2.6-2.4l-0.5-2.7l0.6-0.1l1,5.5
		c-0.9,0.6-1.5,1.2-2,1.7c-0.5,0.5-1,1.2-1.7,2.1l-0.3-0.1c0-0.4-0.2-0.7-0.4-0.9s-0.7-0.5-1.6-0.9l-7.4-3.4c0.1-1,0.1-1.8,0.1-2.4
		C358.7,207.3,358.7,206.2,358.6,204.4z M359.2,207.1l0,0.2l5.9,2.7l-0.8-4.5L359.2,207.1z"/>
	<path fill="none" stroke="#000000" stroke-width="0.5558" d="M365.5,191.4l3.3-0.6l0.6,2.8l-2.8,0.5l0.4,1.9l7.2,4l1.8-0.9
		l-0.3-1.8l0.5-0.1l0.8,4.6c-1,0.3-1.8,0.7-2.3,1c-0.5,0.3-1,0.7-1.5,1.2l-0.2-0.1c-0.1-0.5-0.2-0.9-0.4-1.1c-0.2-0.3-0.7-0.6-1.4-1
		l-5.1-2.8c-0.6-0.4-1.1-0.5-1.4-0.5c-0.3,0-0.5,0.1-0.6,0.3c-0.1,0.2-0.1,0.5,0.1,1.1l-0.6,0.1l-0.8-3.8c0.9-0.4,1.7-0.6,2.2-0.7
		c0.3,0,0.7,0.1,1.2,0.3L365.5,191.4z"/>
	<path fill="none" stroke="#000000" stroke-width="0.5558" d="M376.6,183.7l3.3-1.7l4.9,3.4c-0.4,0.7-0.6,1.4-0.7,2.1
		c-0.1,0.7-0.1,1.6,0.1,2.7c-0.7,0.3-1.3,0.7-1.8,1c-0.4,0.3-0.8,0.7-1.1,1.2c-0.5,0.7-0.7,1.5-0.7,2.4c0,0.3,0,0.5-0.1,0.6
		c-0.1,0.1-0.2,0.1-0.3,0.2c-0.1,0-0.3,0-0.3,0c-0.1-0.1-0.2-0.2-0.2-0.5c0-0.2-0.1-0.5-0.2-0.9l-0.6-1.9l-1-2.9l-3.1,1.7l-4.4-3
		c0.3-1,0.5-1.8,0.5-2.5c0-0.7-0.1-1.4-0.4-2.2c1.1-0.7,1.9-1.3,2.5-1.8c0.4-0.4,0.8-0.7,1-1.1c0.3-0.4,0.4-0.9,0.4-1.2
		c0-0.4-0.1-0.6-0.4-0.8c-0.1-0.1-0.3-0.1-0.6-0.1c-0.5,0.1-0.9,0.1-1.1-0.1c-0.2-0.2-0.4-0.4-0.4-0.6c-0.1-0.2,0-0.4,0.1-0.6
		c0.1-0.2,0.4-0.3,0.7-0.4c0.3,0,0.6,0.1,1,0.3c0.3,0.2,0.6,0.5,0.8,0.9c0.2,0.4,0.5,0.9,0.7,1.7L376.6,183.7z M375.1,187.7l1.9-1
		l-1.7-4.9c-0.2,0.6-0.4,1.1-0.7,1.5c-0.7,1-1.6,1.7-2.9,2.1L375.1,187.7z M377.6,186.4l1.9,5.4c0.1-0.4,0.2-0.8,0.4-1.1
		s0.3-0.6,0.5-0.9c0.6-0.9,1.5-1.6,2.8-2.2l-3.4-2.3L377.6,186.4z"/>
	<path fill="none" stroke="#000000" stroke-width="0.5558" d="M375.3,168.7l1.1-1.4l1.1,3.5l-0.4,0.5L375.3,168.7z M378.4,172.7
		l3.2-0.6l0.1,1.6l6,4.9c0.6,0.5,1.1,0.8,1.4,0.9c0.3,0.1,0.5,0,0.6-0.1c0.1-0.1,0.1-0.2,0.1-0.3c0-0.1,0-0.5,0-0.9l0.6,0l0,3.9
		c-0.9,0.2-1.6,0.3-2.1,0.2c-0.5-0.1-1.2-0.6-2.1-1.3l-6.1-5l-1.5,0.1L378.4,172.7z"/>
	<path fill="none" stroke="#000000" stroke-width="0.5558" d="M379.4,163.9l11.5-2.1c-0.1-0.4-0.2-0.7-0.2-0.9s0.1-0.6,0.2-1
		l0.4,0.4c0,0.3,0.1,0.6,0.2,0.8c0.1,0.2,0.4,0.5,0.8,1l6.8,6.8c-0.5,1.2-0.9,2.1-1,2.7c-0.2,0.6-0.3,1.4-0.4,2.3
		c-1.3,0.3-2.4,0.6-3.3,1c-0.9,0.4-1.7,0.9-2.5,1.5l-0.2-0.2c0-0.4,0-0.8-0.2-1.1c-0.1-0.3-0.5-0.8-1.2-1.4l-5.2-5.3
		c0.7-1.2,1-2.1,1.1-2.8l-4.5,0.8L379.4,163.9z M391,164.7l-3.5,0.6c0,0.3-0.1,0.6-0.2,0.9l6.2,6.2l3.8-1.4L391,164.7z"/>
	<g>
		<path fill="none" stroke="#000000" stroke-width="0.5558" d="M395.8,157.3l-0.1-0.4c0.3-0.2,0.5-0.4,0.7-0.5
			c0.9-0.7,1.4-1.6,1.6-2.8c0.8-0.1,1.6-0.3,2.4-0.6c0.8-0.3,1.4-0.6,1.7-0.8c0.2-0.1,0.3-0.2,0.3-0.4s0.1-0.4,0.1-0.8l0.5-0.1
			c0.1,0.9,0.2,1.6,0.3,2c0.1,0.4,0.4,0.9,0.9,1.5l3.6,4.9c0.6,0.8,1,1.3,1.3,1.4c0.3,0.1,0.5,0.1,0.6,0c0.1-0.1,0.2-0.1,0.2-0.3
			c0-0.1,0.1-0.3,0.2-0.7l0.5,0.2l-0.9,3.9c-0.9,0-1.6-0.1-2.1-0.4c-0.5-0.2-0.9-0.6-1.4-1.3l-1.4,5.3c-2.1-0.1-3.5-0.7-4.3-1.7
			c-0.5-0.7-0.9-1.5-1-2.3c-0.2-1.1-0.3-2.5-0.1-4.2"/>
		<polyline fill="none" stroke="#000000" stroke-width="0.5558" points="399.2,159.1 403.4,158.2 401.3,155.3 395.6,157.1 		"/>
	</g>
	<path fill="none" stroke="#000000" stroke-width="0.5558" d="M403.8,158.7l-3.7,0.8c0.3,1.2,0.7,2.2,1.2,2.9
		c0.9,1.2,2.2,1.8,3.9,1.8l0.7-2.7L403.8,158.7z"/>
	<path fill="none" stroke="#000000" stroke-width="0.5558" d="M404.2,143.4l11.6,1.6c0-0.4,0-0.7,0.1-0.9c0.1-0.2,0.3-0.5,0.5-0.8
		l0.3,0.5c-0.1,0.3-0.1,0.6,0,0.8c0,0.2,0.2,0.6,0.5,1.2l4.3,8.6c-0.9,0.9-1.5,1.7-1.8,2.3c-0.4,0.6-0.7,1.2-1.1,2.1
		c-1.3-0.2-2.5-0.2-3.4-0.1c-0.9,0.1-1.9,0.3-2.8,0.7l-0.1-0.2c0.2-0.4,0.2-0.8,0.2-1.1s-0.3-0.9-0.7-1.7l-3.4-6.6
		c1-0.9,1.6-1.7,1.9-2.3l-4.5-0.6L404.2,143.4z M415,147.8l-3.5-0.5c-0.1,0.3-0.3,0.6-0.5,0.8l4,7.8l4-0.2L415,147.8z"/>
	<path fill="none" stroke="#000000" stroke-width="0.5558" d="M426.9,139.2l5.2,3.4l-4.9,6.1l0.7,2.5l3.5,0.4l1.7-2.1l0.5,0.3
		l-3.5,4.3c-1.1-0.2-1.9-0.4-2.6-0.4s-1.5,0-2.7,0.1l-0.1-0.3c0.3-0.3,0.4-0.6,0.4-0.9c0-0.3-0.1-0.9-0.3-1.8l-2.3-7.8
		c0.8-0.6,1.4-1.1,1.9-1.5C424.7,141.2,425.5,140.5,426.9,139.2z M425.2,141.4l-0.2,0.1l1.8,6.2l2.9-3.6L425.2,141.4z"/>
	<path fill="none" stroke="#000000" stroke-width="0.5558" d="M467.9,131.5l0.6,0.2l-0.7,2.4l4.5-1.4c1.6,1.8,2.7,3.1,3.2,4
		c0.5,0.9,0.8,1.8,0.9,2.5c0.1,0.7-0.1,1.7-0.4,2.9l-2.4,8.7l-5.3,2.6c-1-0.8-1.9-1.4-2.6-1.8c-0.8-0.4-1.5-0.8-2.3-1.1l-1.5,5.6
		l-5.2-1.4l1.7-5.8c-1.4-0.3-2.6-0.4-3.6-0.3c-1,0.1-2,0.3-3.1,0.8l-0.3-0.6c1.6-1,3-1.7,4-1.9c1.1-0.3,2.3-0.4,3.7-0.3
		c0.3-1.2,0.5-2.3,0.4-3.1c-0.1-0.8-0.5-1.7-1.1-2.5c-0.6-0.8-1.5-1.6-2.7-2.3l0.2-0.6c0.7-0.1,1.4-0.3,2-0.5l4.2-1.3l0.3-1
		c0.2-0.9,0.3-1.6,0.3-2c-0.1-0.5-0.3-0.9-0.7-1.3c-0.4-0.4-0.9-0.7-1.5-0.9c-0.6-0.2-1.4-0.1-2.3,0.1l-0.2-0.5
		c0.8-0.4,1.6-0.7,2.2-0.8s1.4-0.1,2.2,0.2c0.8,0.2,1.5,0.6,2.1,1.2c0.6,0.5,0.9,1.1,1.1,1.7c0.1,0.6,0.1,1.4-0.1,2.2l1.9-0.6
		L467.9,131.5z M461.6,136.9L458,138c0.5,0.4,1,0.9,1.4,1.3c0.4,0.4,0.7,1,1.1,1.6L461.6,136.9z M466.8,135.2l-1.9,0.6l-5.5,19.7
		l1.6,0.5L466.8,135.2z M464,147.9c1.1,0.3,2.1,0.8,3,1.4c1,0.6,2,1.4,3.3,2.4l1.2-4.3l1.8-6.5c0.1-0.6,0.2-1.2,0.1-1.7
		c-0.1-0.6-0.4-1.3-1-2.1c-0.6-0.8-1.5-1.8-2.7-2.9l-2.2,0.6L464,147.9z"/>
	<path fill="none" stroke="#000000" stroke-width="0.5558" d="M488,149.5l0.5,3.3l-2.8,0.5l-0.4-2.9l-1.9,0.4l-4.2,7.1l0.8,1.9
		l1.8-0.2l0.1,0.5l-4.6,0.6c-0.3-1-0.6-1.8-0.9-2.3c-0.3-0.5-0.7-1-1.1-1.5l0.1-0.2c0.5,0,0.9-0.2,1.2-0.4c0.3-0.2,0.6-0.7,1-1.4
		l3-5c0.4-0.6,0.6-1.1,0.5-1.4c0-0.3-0.1-0.5-0.3-0.6c-0.2-0.1-0.5-0.1-1.1,0.1l-0.1-0.6l3.9-0.7c0.4,0.9,0.6,1.7,0.6,2.2
		c0,0.3-0.1,0.7-0.4,1.2L488,149.5z"/>
	<path fill="none" stroke="#000000" stroke-width="0.5558" d="M497.7,156.6l0.2,6.2l-7.8-0.5l-1.6,2l1.7,3.1l2.7,0.2l0,0.6l-5.6-0.4
		c-0.4-1-0.8-1.8-1.1-2.3c-0.3-0.6-0.9-1.3-1.6-2.2l0.2-0.3c0.4,0.1,0.7,0,0.9-0.1c0.3-0.2,0.7-0.6,1.3-1.3l5.1-6.3
		c0.9,0.3,1.7,0.6,2.3,0.7C494.9,156,496,156.3,497.7,156.6z M495,156.5l-0.2-0.1l-4.1,5l4.6,0.3L495,156.5z"/>
	<path fill="none" stroke="#000000" stroke-width="0.5558" d="M504.6,170.4l1,3.6l-4.3,4.1c-0.6-0.5-1.2-0.9-1.9-1.2
		c-0.7-0.2-1.6-0.4-2.7-0.5c-0.2-0.8-0.4-1.4-0.6-1.9c-0.2-0.5-0.6-0.9-1-1.4c-0.6-0.6-1.4-1-2.2-1.2c-0.3,0-0.5-0.1-0.6-0.2
		c-0.1-0.1-0.1-0.2-0.1-0.3c0-0.1,0-0.3,0.1-0.3c0.1-0.1,0.3-0.1,0.5-0.1c0.2,0,0.5,0,0.9,0l2-0.2l3.1-0.4l-1-3.4l3.8-3.7
		c0.9,0.5,1.7,0.8,2.3,1c0.7,0.1,1.4,0.2,2.2,0.1c0.5,1.2,0.9,2.2,1.3,2.9c0.3,0.5,0.6,0.9,0.9,1.2c0.4,0.4,0.7,0.6,1.1,0.7
		c0.4,0.1,0.7,0,0.8-0.2c0.1-0.1,0.2-0.3,0.2-0.6c0-0.5,0.1-0.9,0.3-1.1c0.2-0.2,0.4-0.3,0.7-0.3c0.2,0,0.4,0.1,0.6,0.2
		c0.2,0.2,0.3,0.4,0.2,0.8s-0.2,0.6-0.5,0.9c-0.3,0.3-0.6,0.5-1,0.6c-0.4,0.1-1,0.3-1.8,0.3L504.6,170.4z M501.7,170.8l-5.7,0.7
		c0.4,0.2,0.7,0.4,1,0.6c0.3,0.2,0.5,0.4,0.7,0.6c0.7,0.8,1.3,1.8,1.5,3.2l3-2.8L501.7,170.8z M501,168.1l0.6,2.1l5.2-0.6
		c-0.6-0.3-1-0.7-1.3-1c-0.8-0.8-1.3-1.9-1.5-3.3L501,168.1z"/>
	<path fill="none" stroke="#000000" stroke-width="0.5558" d="M521.1,173.9l-0.2,0.3c-0.8-0.3-1.4-0.4-1.9-0.4
		c-0.5,0.1-1.1,0.4-1.9,1l-4,3l5.5,1.5c0,1-0.1,1.8-0.3,2.4c-0.3,0.6-0.8,1.1-1.6,1.7l-6.9,5.2c-1.1-0.7-2-1.1-2.8-1.5
		c-0.6-0.3-1.3-0.4-2-0.6c0.1-1.1,0-2-0.2-2.9c-0.2-0.9-0.6-2-1.3-3.5l0.2-0.2c0.5,0.2,0.9,0.2,1.3,0c0.5-0.2,1.6-0.9,3.2-2.1
		l6.6-4.9c0.9-0.6,1.4-1.2,1.7-1.7c0.3-0.5,0.4-1,0.3-1.8l0.4,0c0.2,0.8,0.3,1.3,0.3,1.6c0,0.3,0,0.6-0.1,1c1.2,0.4,1.9,0.7,2.3,0.9
		C520.2,173.2,520.6,173.5,521.1,173.9z M506.9,182.5l1,3.8l6.4-4.8c0.6-0.4,1-0.8,1.1-1.1c0.1-0.3,0.2-0.7,0.2-1.3l-3.1-0.8
		L506.9,182.5z"/>
	<path fill="none" stroke="#000000" stroke-width="0.5558" d="M523.5,186.6l-0.4,3.2l-1.5-0.4l-6.5,4.1c-0.7,0.4-1.1,0.8-1.2,1
		c-0.1,0.2-0.2,0.4-0.1,0.6c0.1,0.1,0.1,0.2,0.2,0.2c0.1,0.1,0.4,0.2,0.9,0.3l-0.2,0.5l-3.7-1.2c0.1-0.9,0.2-1.6,0.5-2.1
		c0.3-0.4,0.9-1,2-1.6l6.7-4.2l0.4-1.5L523.5,186.6z M528.2,185l1,1.5l-3.6-0.1l-0.3-0.5L528.2,185z"/>
	<path fill="none" stroke="#000000" stroke-width="0.5558" d="M525.4,192.8l6.2,1.1l0.2,0.4l-3.5,1.8l1.4,2.5l-1.4,0.8l-1.4-2.5
		l-8.4,4.6l-0.3,2l1,0.5l-0.2,0.5l-3.7-1.5c0.4-1.5,0.5-2.9,0.2-4.3l0.2-0.1c0.4,0.2,0.8,0.3,1.1,0.3c0.4,0,0.9-0.2,1.5-0.5l7.2-3.9
		l-0.7-1.2L525.4,192.8z"/>
	<path fill="none" stroke="#000000" stroke-width="0.5558" d="M534.2,206.5l-2.5,5.6l-6.8-3.9l-2.3,1.1l0.2,3.5l2.3,1.4l-0.3,0.5
		l-4.8-2.8c0.1-1.1,0.1-1.9,0-2.6c-0.1-0.6-0.2-1.5-0.5-2.7l0.3-0.1c0.3,0.2,0.6,0.3,0.9,0.3c0.3,0,0.9-0.2,1.7-0.6l7.4-3.5
		c0.7,0.7,1.3,1.2,1.8,1.7C531.9,204.7,532.8,205.4,534.2,206.5z M531.8,205.2l-0.2-0.1l-5.9,2.7l4,2.3L531.8,205.2z"/>
	<path fill="none" stroke="#000000" stroke-width="0.5558" d="M539.8,220l-1.6,2.9l-2.5-1.3l1.5-2.5l-1.7-0.9l-7.7,3l-0.5,2l1.6,1
		l-0.3,0.5l-4-2.4c0.4-1,0.6-1.8,0.7-2.4c0.1-0.6,0.1-1.2,0-1.9l0.3-0.1c0.4,0.3,0.8,0.4,1.1,0.4c0.3,0,0.9-0.1,1.7-0.4l5.4-2.1
		c0.7-0.3,1.1-0.5,1.3-0.8c0.2-0.2,0.2-0.4,0.1-0.6c-0.1-0.2-0.4-0.4-0.9-0.6l0.3-0.5l3.5,1.8c-0.3,1-0.6,1.7-0.9,2.1
		c-0.2,0.3-0.5,0.5-1,0.7L539.8,220z"/>
	<path fill="none" stroke="#000000" stroke-width="0.5558" d="M542.3,227.2l-1.2,3l-1.4-0.7l-7.3,2.4c-0.8,0.3-1.3,0.5-1.4,0.7
		c-0.2,0.2-0.3,0.4-0.2,0.5c0,0.1,0.1,0.2,0.2,0.2c0.1,0.1,0.4,0.3,0.8,0.5l-0.3,0.5l-3.3-2.1c0.3-0.9,0.6-1.5,1-1.9
		c0.4-0.4,1.2-0.7,2.3-1.1l7.6-2.5l0.7-1.4L542.3,227.2z M547.2,226.8l0.6,1.7l-3.5-0.9l-0.2-0.6L547.2,226.8z"/>
	<path fill="none" stroke="#000000" stroke-width="0.5558" d="M549.7,256.4l-1.7,2.3l1.6,1.1l-0.3,0.5c-0.7-0.5-1.3-0.8-1.6-0.9
		c-0.4-0.1-1-0.1-1.8,0.1l-6.7,1.3c-0.6,0.1-1.1,0.3-1.3,0.6c-0.2,0.2-0.2,0.3-0.2,0.5c0,0.1,0.3,0.4,0.7,0.8l-0.4,0.4l-3-2.5
		c0.4-0.9,0.8-1.5,1.3-1.8c0.4-0.3,1.1-0.6,2.1-0.8l7.7-1.5l1.1-1.5l-2.4-2l-7.7,1.5l-0.8,1.3l-2.5-2.1l1.5-2.9l1.2,0.9l7.1-1.4
		c1-0.2,1.7-0.4,2-0.7c0.2-0.2,0.3-0.4,0.3-0.5c0-0.2-0.3-0.4-0.7-0.7l0.4-0.4l3,2.5c-0.5,0.9-0.8,1.6-1.1,1.8
		c-0.3,0.3-0.8,0.5-1.4,0.6l-0.5,0.1L549.7,256.4z"/>
	<path fill="none" stroke="#000000" stroke-width="0.5558" d="M549.5,264.8l0.4,0.1c0,0.4,0.1,0.6,0.1,0.8c0.1,1.1,0.7,2,1.7,2.8
		c-0.3,0.7-0.5,1.5-0.7,2.4c-0.1,0.8-0.2,1.5-0.1,1.9c0,0.2,0.1,0.3,0.2,0.4s0.3,0.2,0.7,0.4l-0.1,0.5c-0.9-0.4-1.5-0.6-1.9-0.7
		c-0.4-0.1-1-0.1-1.7,0l-6,0.8c-1,0.1-1.6,0.3-1.8,0.5c-0.2,0.2-0.3,0.4-0.3,0.6c0,0.1,0.1,0.2,0.1,0.3c0.1,0.1,0.2,0.2,0.6,0.5
		l-0.4,0.4l-3-2.7c0.5-0.8,0.9-1.3,1.3-1.6c0.4-0.3,1-0.5,1.8-0.7l-3.9-3.8c1.1-1.8,2.3-2.8,3.6-2.9c0.9-0.1,1.7,0,2.5,0.2
		c1.1,0.3,2.3,1,3.8,1.9 M544.4,271.1l1.1-3.6c-1.2-0.4-2.3-0.5-3.1-0.4c-1.5,0.2-2.7,1.1-3.5,2.6l2,1.9L544.4,271.1z M545.9,266.9
		l-1.4,4.2l4-0.6l1.1-5.5"/>
	<path fill="none" stroke="#000000" stroke-width="0.5558" d="M417.9,178.6c0,0-14.5,11.9-19.6,21.1c0,0,14.5-10.7,19.6-11.9V178.6z
		"/>
	<path fill="none" stroke="#000000" stroke-width="0.5558" d="M473.8,178.6c0,0,14.5,11.9,19.6,21.1c0,0-14.5-10.7-19.6-11.9V178.6z
		"/>
	<path fill="none" stroke="#000000" stroke-width="0.5558" d="M460.7,208.5"/>
</g>
<g>
	<path stroke="#000000" stroke-width="0.5558" d="M424.8,175.7l2.7-2.3c0.7,0.3,1.1,0.6,1.5,1.1s0.5,1,0.5,1.8v9.1
		c0,0.3,0,0.5,0.1,0.6c0.2,0.2,0.4,0.5,0.8,0.8l1.2-1l0.3,0.4l-2.9,2.3l-2.6-1.7l0.7-1v-8.1c0-0.5,0-0.9-0.1-1.1
		c-0.1-0.3-0.3-0.6-0.5-0.8c-0.2-0.1-0.3-0.2-0.4-0.2c-0.1,0-0.3,0.1-0.6,0.3c-0.2,0.1-0.3,0.2-0.4,0.3L424.8,175.7z"/>
	<path stroke="#000000" stroke-width="0.5558" d="M438.7,173.4h0.8c1.6,0,2.8,0.3,3.5,0.9s1.2,1.3,1.2,2.1c0,0.5-0.2,1-0.5,1.5
		c-0.4,0.5-0.9,1-1.7,1.6c0.8,0.3,1.4,0.6,1.8,1.1c0.6,0.7,0.9,1.4,0.9,2.2c0,0.9-0.3,1.7-0.9,2.5c-0.6,0.8-1.9,1.9-3.9,3.1h-0.4
		c-1.5,0-2.7-0.4-3.5-1.1c-0.8-0.7-1.3-1.6-1.3-2.6c0-0.7,0.2-1.3,0.7-1.9c0.4-0.6,1-1.1,1.6-1.6c-0.6-0.2-1.1-0.5-1.4-1
		s-0.5-0.9-0.5-1.4c0-0.7,0.2-1.4,0.7-2.3C436.4,175.7,437.3,174.6,438.7,173.4z M437.7,181.3c-0.4,0.4-0.8,0.8-1,1.1
		c-0.2,0.4-0.3,0.7-0.3,1.1c0,0.6,0.3,1.2,0.9,1.6c0.8,0.6,2,0.9,3.4,0.9c1,0,1.7-0.2,2.2-0.6s0.7-0.9,0.7-1.5c0-0.4-0.1-0.7-0.4-1
		c-0.3-0.3-0.7-0.6-1.5-0.9c-0.5-0.2-1.3-0.3-2.4-0.5C438.6,181.5,438,181.4,437.7,181.3z M437.3,175.4c-0.2,0.3-0.4,0.5-0.5,0.8
		c-0.1,0.3-0.2,0.6-0.2,0.9c0,0.5,0.2,1,0.7,1.3c0.3,0.2,0.8,0.4,1.6,0.5c0.5,0.1,1.4,0.2,2.5,0.4c0.4-0.3,0.7-0.5,1-0.9
		c0.2-0.3,0.3-0.7,0.3-1c0-0.4-0.2-0.7-0.5-1c-0.3-0.3-0.8-0.6-1.5-0.7C440.2,175.6,439,175.5,437.3,175.4z"/>
	<path stroke="#000000" stroke-width="0.5558" d="M448.2,173.5h8.1v0.6c-1,1.2-1.9,2.3-2.4,3.2c-0.9,1.5-1.6,3-2.1,4.7
		c-0.5,1.7-0.8,3.4-0.8,5.3l-3.1,1c0-0.8,0.1-1.6,0.3-2.3c0.3-1.3,0.8-2.6,1.4-3.9c0.5-1,1.2-2.1,2-3.3c0.3-0.4,1.2-1.5,2.6-3.2H450
		c-0.9,0-1.5,0.1-2,0.4s-0.9,0.8-1.3,1.6h-0.5L448.2,173.5z"/>
	<path stroke="#000000" stroke-width="0.5558" d="M462.3,173.4c1.6,0.6,2.9,1.5,3.8,2.7c0.9,1.2,1.4,2.7,1.4,4.4
		c0,1.6-0.4,3.1-1.3,4.5s-2,2.5-3.4,3.4c-1-0.2-2-0.7-2.8-1.4s-1.5-1.5-1.9-2.5s-0.7-2.1-0.7-3.2c0-1.6,0.4-3.1,1.3-4.6
		C459.6,175.3,460.8,174.1,462.3,173.4z M460.4,175.4c-1,1.1-1.5,2.5-1.5,4.1c0,1.1,0.2,2.2,0.7,3.2c0.5,1,1.2,1.8,2.1,2.5
		c0.9,0.6,1.8,1,2.7,1.2c0.5-0.7,0.9-1.4,1.1-2c0.2-0.6,0.3-1.3,0.3-2.1c0-1-0.2-2-0.6-3c-0.4-0.9-1.1-1.7-1.9-2.4
		S461.6,175.7,460.4,175.4z"/>
</g>
<g>
	<path stroke="#FFFFFF" stroke-width="0.5558" d="M374.2,335.7l7.8-1.5l-0.5-2.7l1.6-0.3l1.4,7.3l-1.6,0.3l-0.5-2.7l-7.8,1.5
		L374.2,335.7z"/>
	<path stroke="#FFFFFF" stroke-width="0.5558" d="M375.7,342.7l-0.4-1.8l6.8-1.6l0.4,1.6l-1,0.2c0.5,0.2,0.9,0.4,1.1,0.5
		c0.2,0.2,0.3,0.4,0.4,0.7c0.1,0.4,0.1,0.8-0.1,1.2l-1.7-0.2c0.1-0.3,0.2-0.6,0.1-0.9c-0.1-0.2-0.2-0.4-0.4-0.6s-0.5-0.2-0.8-0.2
		c-0.4,0-1.2,0.1-2.3,0.4L375.7,342.7z"/>
	<path stroke="#FFFFFF" stroke-width="0.5558" d="M381.5,346.2l-0.1-1.6c0.7,0,1.3,0.2,1.7,0.5c0.4,0.3,0.8,0.9,1,1.8
		c0.2,0.8,0.3,1.4,0.2,1.8c-0.1,0.4-0.3,0.8-0.5,1c-0.2,0.2-0.8,0.5-1.5,0.7l-2.1,0.5c-0.6,0.2-1,0.3-1.3,0.4
		c-0.3,0.1-0.5,0.3-0.8,0.6l-0.5-1.7c0.1-0.1,0.3-0.2,0.5-0.3c0.1-0.1,0.2-0.1,0.2-0.1c-0.4-0.2-0.7-0.5-0.9-0.8
		c-0.2-0.3-0.4-0.6-0.5-1c-0.2-0.7-0.1-1.3,0.1-1.8c0.3-0.5,0.7-0.8,1.3-1c0.4-0.1,0.7-0.1,1.1,0c0.3,0.1,0.6,0.3,0.9,0.6
		s0.5,0.7,0.8,1.3c0.4,0.8,0.7,1.3,0.9,1.6l0.2,0c0.3-0.1,0.6-0.2,0.7-0.4c0.1-0.2,0.1-0.5,0-1c-0.1-0.3-0.2-0.5-0.4-0.7
		C382.1,346.3,381.9,346.2,381.5,346.2z M380.7,348.9c-0.1-0.2-0.3-0.5-0.6-1c-0.2-0.5-0.4-0.7-0.6-0.9c-0.2-0.2-0.5-0.2-0.7-0.2
		c-0.2,0.1-0.4,0.2-0.6,0.4c-0.1,0.2-0.2,0.5-0.1,0.8c0.1,0.3,0.3,0.6,0.6,0.8c0.2,0.2,0.5,0.2,0.7,0.3c0.2,0,0.5-0.1,0.9-0.2
		L380.7,348.9z"/>
	<path stroke="#FFFFFF" stroke-width="0.5558" d="M380.4,359.5l-0.5-1.6l1-0.3c-0.5-0.1-0.8-0.4-1.2-0.7c-0.3-0.3-0.5-0.6-0.6-1
		c-0.2-0.7-0.1-1.5,0.3-2.2c0.4-0.7,1.2-1.3,2.3-1.6c1.1-0.4,2.1-0.4,2.8-0.1c0.8,0.3,1.3,0.9,1.5,1.7c0.2,0.7,0.1,1.4-0.3,2.2
		l3.3-1l0.6,1.7L380.4,359.5z M382.4,353.8c-0.7,0.2-1.2,0.5-1.5,0.8c-0.4,0.4-0.5,0.9-0.3,1.4c0.1,0.4,0.4,0.7,0.8,0.8
		c0.4,0.2,1,0.1,1.7-0.1c0.8-0.2,1.3-0.6,1.5-0.9c0.2-0.4,0.3-0.8,0.2-1.2c-0.1-0.4-0.4-0.7-0.8-0.9
		C383.6,353.5,383.1,353.6,382.4,353.8z"/>
	<path stroke="#FFFFFF" stroke-width="0.5558" d="M381.1,361.3l6.5-2.4l0.6,1.7l-6.5,2.4L381.1,361.3z M388.5,358.6l1.6-0.6l0.6,1.7
		l-1.6,0.6L388.5,358.6z"/>
	<path stroke="#FFFFFF" stroke-width="0.5558" d="M380.5,366.8l0.7-0.3c0.1,0.4,0.3,0.8,0.4,1.1c0.1,0.4,0.3,0.6,0.5,0.7
		c0.1,0.1,0.3,0.1,0.5,0c0.1-0.1,0.2-0.2,0.3-0.3c0.1-0.2,0-0.4-0.1-0.6c-0.1-0.3-0.2-0.5-0.4-0.7l0.7-0.1c0.2,0.3,0.4,0.6,0.6,0.9
		c0.2,0.5,0.2,0.9,0.1,1.3c-0.1,0.3-0.3,0.6-0.7,0.7c-0.4,0.1-0.7,0.1-1-0.1c-0.5-0.3-0.8-0.7-1.1-1.5
		C380.6,367.5,380.5,367.1,380.5,366.8z M389.3,368.6l-1-1.5c0.3-0.2,0.5-0.4,0.6-0.7c0.1-0.3,0.1-0.6-0.1-0.9
		c-0.2-0.4-0.5-0.7-0.9-0.8c-0.4-0.1-0.9-0.1-1.6,0.2c-0.8,0.3-1.3,0.7-1.5,1s-0.2,0.8-0.1,1.2c0.1,0.3,0.3,0.5,0.6,0.7
		c0.3,0.1,0.6,0.1,1.1,0l0.4,1.8c-0.8,0.1-1.6,0.1-2.1-0.3c-0.6-0.3-1-0.9-1.4-1.7c-0.4-0.9-0.4-1.8,0-2.6s1.1-1.4,2.1-1.8
		c1.1-0.4,2-0.5,2.8-0.2s1.4,0.9,1.8,1.9c0.3,0.8,0.4,1.4,0.2,2S389.9,368.2,389.3,368.6z"/>
	<path stroke="#FFFFFF" stroke-width="0.5558" d="M390.3,371.2l-0.4-1.6c0.7-0.1,1.3-0.1,1.8,0.2c0.5,0.3,0.9,0.8,1.3,1.6
		c0.3,0.7,0.5,1.3,0.5,1.7s-0.1,0.8-0.3,1.1s-0.7,0.6-1.4,0.9l-2,0.9c-0.6,0.3-0.9,0.5-1.2,0.7c-0.2,0.2-0.5,0.4-0.7,0.7l-0.8-1.6
		c0.1-0.1,0.2-0.2,0.4-0.4c0.1-0.1,0.1-0.1,0.2-0.1c-0.4-0.1-0.8-0.3-1.1-0.6c-0.3-0.3-0.5-0.6-0.7-0.9c-0.3-0.6-0.4-1.2-0.2-1.8
		c0.2-0.5,0.5-0.9,1.1-1.2c0.4-0.2,0.7-0.2,1.1-0.2c0.4,0,0.7,0.2,1,0.4c0.3,0.2,0.6,0.6,1,1.1c0.5,0.7,0.9,1.2,1.2,1.4l0.2-0.1
		c0.3-0.2,0.5-0.3,0.6-0.6c0.1-0.2,0-0.5-0.2-1c-0.1-0.3-0.3-0.5-0.5-0.6C391,371.2,390.7,371.2,390.3,371.2z M390,374
		c-0.2-0.2-0.4-0.5-0.7-0.9s-0.5-0.7-0.7-0.7c-0.3-0.1-0.5-0.2-0.7,0c-0.2,0.1-0.4,0.3-0.5,0.5c-0.1,0.2-0.1,0.5,0.1,0.8
		c0.1,0.3,0.4,0.5,0.7,0.7c0.2,0.1,0.5,0.2,0.7,0.1c0.2,0,0.4-0.1,0.8-0.3L390,374z M393.1,370l-0.3-0.7c0.1,0,0.2-0.1,0.2-0.1
		c0.4-0.2,0.8-0.2,1.1-0.2c0.3,0.1,0.5,0.3,0.7,0.6c0.1,0.1,0.1,0.3,0.1,0.4c0,0.1,0,0.4,0,0.8c0,0.4,0.1,0.6,0.1,0.8
		c0.1,0.1,0.1,0.2,0.3,0.3c0.1,0,0.3,0,0.5,0l0.4,0.8c-0.5,0.2-1,0.3-1.3,0.2c-0.3-0.1-0.6-0.3-0.7-0.6c-0.1-0.1-0.1-0.3-0.1-0.4
		c0-0.1,0-0.4-0.1-0.8c0-0.4-0.1-0.7-0.2-0.9c-0.1-0.1-0.1-0.2-0.3-0.2C393.4,369.9,393.3,369.9,393.1,370z"/>
	<path stroke="#FFFFFF" stroke-width="0.5558" d="M391.7,376.9c0.5-0.3,1.1-0.5,1.8-0.5c0.6,0,1.2,0.1,1.8,0.5
		c0.5,0.3,0.9,0.8,1.3,1.4c0.5,0.9,0.6,1.8,0.3,2.7c-0.3,0.9-0.9,1.6-1.8,2.1c-0.9,0.5-1.9,0.6-2.8,0.4c-0.9-0.2-1.6-0.8-2.1-1.7
		c-0.3-0.5-0.5-1.1-0.5-1.8c0-0.6,0.1-1.2,0.5-1.7C390.4,377.7,391,377.3,391.7,376.9z M392.5,378.5c-0.6,0.3-1,0.7-1.2,1.2
		c-0.2,0.5-0.1,0.9,0.1,1.3c0.2,0.4,0.6,0.7,1.1,0.8c0.5,0.1,1,0,1.6-0.4c0.6-0.3,1-0.7,1.2-1.2c0.2-0.5,0.1-0.9-0.1-1.3
		c-0.2-0.4-0.6-0.7-1.1-0.8S393.1,378.2,392.5,378.5z"/>
	<path stroke="#FFFFFF" stroke-width="0.5558" d="M399,391.6l0.8,1.6c-0.7,0.2-1.3,0.2-1.9,0c-0.6-0.2-1.1-0.6-1.5-1.2
		c-0.7-1-0.9-1.9-0.5-2.8c0.3-0.7,0.8-1.4,1.6-1.9c0.9-0.7,1.9-0.9,2.7-0.8c0.9,0.1,1.6,0.5,2.1,1.3c0.6,0.8,0.8,1.7,0.5,2.6
		c-0.2,0.9-0.9,1.7-2.1,2.5l-2.6-3.7c-0.4,0.3-0.7,0.7-0.8,1.1c-0.1,0.4,0,0.8,0.2,1.1c0.2,0.2,0.4,0.4,0.6,0.5
		S398.7,391.7,399,391.6z M400.6,390.6c0.4-0.3,0.7-0.7,0.8-1c0.1-0.4,0-0.7-0.2-1c-0.2-0.3-0.5-0.5-0.9-0.5c-0.4,0-0.8,0.1-1.2,0.4
		L400.6,390.6z"/>
	<path stroke="#FFFFFF" stroke-width="0.5558" d="M401.9,399l7.2-6.3l2,2.3c0.8,0.9,1.2,1.5,1.4,1.8c0.2,0.5,0.3,1,0.2,1.6
		c-0.1,0.6-0.5,1.1-1.1,1.6c-0.4,0.4-0.9,0.6-1.3,0.7s-0.9,0.1-1.2,0c-0.4-0.1-0.7-0.2-1-0.4c-0.4-0.3-0.8-0.7-1.4-1.4l-0.8-0.9
		l-2.7,2.4L401.9,399z M409.1,395.2l-2.1,1.8l0.7,0.8c0.5,0.6,0.9,0.9,1.1,1s0.5,0.2,0.7,0.1c0.3,0,0.5-0.1,0.7-0.3
		c0.3-0.2,0.4-0.5,0.5-0.8c0-0.3,0-0.6-0.2-0.9c-0.1-0.2-0.4-0.6-0.8-1.1L409.1,395.2z"/>
	<path stroke="#FFFFFF" stroke-width="0.5558" d="M408,405.7l4.9-4.9l1.3,1.3l-4.9,4.9L408,405.7z M413.6,400.2l1.2-1.2l1.3,1.3
		l-1.2,1.2L413.6,400.2z"/>
	<path stroke="#FFFFFF" stroke-width="0.5558" d="M412.9,405.7c0.4-0.5,0.9-0.8,1.5-1.1c0.6-0.2,1.2-0.3,1.8-0.2s1.2,0.4,1.7,0.8
		c0.8,0.7,1.2,1.5,1.3,2.4c0.1,0.9-0.3,1.8-0.9,2.6c-0.7,0.8-1.5,1.3-2.5,1.3c-1,0.1-1.8-0.2-2.6-0.8c-0.5-0.4-0.8-0.9-1.1-1.5
		c-0.2-0.6-0.3-1.2-0.2-1.8C412.1,406.9,412.4,406.3,412.9,405.7z M414.2,406.9c-0.5,0.5-0.7,1-0.7,1.5s0.2,0.9,0.5,1.2
		c0.4,0.3,0.8,0.4,1.3,0.3c0.5-0.1,1-0.4,1.4-0.9c0.4-0.5,0.7-1,0.7-1.5c0-0.5-0.2-0.9-0.5-1.2c-0.4-0.3-0.8-0.4-1.3-0.3
		S414.7,406.4,414.2,406.9z"/>
	<path stroke="#FFFFFF" stroke-width="0.5558" d="M422.9,417.7l-1.5-1l1.9-3c0.4-0.6,0.6-1.1,0.7-1.3c0.1-0.2,0-0.4,0-0.6
		c-0.1-0.2-0.2-0.4-0.4-0.5c-0.3-0.2-0.5-0.2-0.8-0.2c-0.3,0-0.6,0.1-0.8,0.3c-0.2,0.2-0.6,0.6-1,1.3l-1.7,2.6l-1.5-1l3.8-5.8
		l1.4,0.9l-0.6,0.9c0.9-0.3,1.8-0.3,2.5,0.2c0.3,0.2,0.6,0.5,0.8,0.8c0.2,0.3,0.3,0.6,0.3,0.9c0,0.3,0,0.6-0.1,0.8
		c-0.1,0.3-0.3,0.6-0.6,1.1L422.9,417.7z"/>
	<path stroke="#FFFFFF" stroke-width="0.5558" d="M430,418.6l1.5,1c-0.5,0.5-1,0.8-1.6,1c-0.6,0.1-1.2,0-1.9-0.3
		c-1.1-0.5-1.7-1.2-1.9-2.1c-0.2-0.8,0-1.6,0.4-2.5c0.5-1.1,1.1-1.8,1.9-2.1c0.8-0.4,1.6-0.4,2.4,0c0.9,0.4,1.5,1,1.8,1.9
		c0.3,0.9,0.1,1.9-0.5,3.2l-4.1-1.8c-0.2,0.5-0.2,1-0.1,1.3c0.1,0.4,0.4,0.7,0.8,0.8c0.3,0.1,0.5,0.1,0.7,0.1
		C429.5,419.1,429.7,418.9,430,418.6z M430.8,417c0.2-0.5,0.2-0.9,0.1-1.3c-0.1-0.4-0.4-0.6-0.7-0.8c-0.4-0.2-0.7-0.2-1.1,0
		c-0.4,0.2-0.6,0.5-0.8,1L430.8,417z"/>
	<path stroke="#FFFFFF" stroke-width="0.5558" d="M433.1,422l1.9-6.7l1.7,0.5l-1.9,6.7L433.1,422z M435.2,414.5l0.5-1.6l1.7,0.5
		L437,415L435.2,414.5z"/>
	<path stroke="#FFFFFF" stroke-width="0.5558" d="M439.1,423.4l-1.8-0.3l1.1-6.9l1.6,0.3l-0.2,1c0.4-0.4,0.7-0.7,0.9-0.8
		c0.2-0.1,0.5-0.2,0.8-0.1c0.4,0.1,0.8,0.2,1.1,0.5l-0.8,1.5c-0.3-0.2-0.5-0.4-0.8-0.4c-0.2,0-0.5,0-0.7,0.1
		c-0.2,0.1-0.4,0.3-0.5,0.7c-0.2,0.4-0.3,1.1-0.5,2.3L439.1,423.4z"/>
	<path stroke="#FFFFFF" stroke-width="0.5558" d="M443.2,423.9l0.2-6.9l1.8,0.1l-0.2,6.9L443.2,423.9z M443.5,416l0.1-1.7l1.8,0.1
		l-0.1,1.7L443.5,416z"/>
	<path stroke="#FFFFFF" stroke-width="0.5558" d="M447.2,422l1.7-0.5c0.1,0.3,0.3,0.6,0.6,0.7s0.6,0.2,1,0.1c0.5-0.1,0.8-0.2,1-0.4
		c0.1-0.1,0.2-0.3,0.2-0.5c0-0.1-0.1-0.2-0.2-0.3c-0.1-0.1-0.3-0.1-0.6-0.1c-1.5-0.1-2.4-0.3-2.9-0.5c-0.6-0.3-0.9-0.8-1-1.4
		c-0.1-0.6,0.1-1.1,0.5-1.6s1.1-0.8,2.1-0.9c0.9-0.1,1.6-0.1,2.1,0.1c0.5,0.2,0.9,0.6,1.1,1.2l-1.6,0.6c-0.1-0.3-0.3-0.4-0.5-0.5
		c-0.2-0.1-0.5-0.1-0.9-0.1c-0.5,0.1-0.8,0.2-1,0.4c-0.1,0.1-0.2,0.3-0.1,0.4c0,0.1,0.1,0.2,0.2,0.3c0.2,0.1,0.8,0.2,1.7,0.3
		c1,0.1,1.7,0.2,2.1,0.5c0.4,0.3,0.7,0.7,0.8,1.3c0.1,0.6-0.1,1.2-0.5,1.7c-0.4,0.5-1.2,0.9-2.2,1c-0.9,0.1-1.7,0.1-2.3-0.2
		C447.9,423.1,447.5,422.7,447.2,422z"/>
	<path stroke="#FFFFFF" stroke-width="0.5558" d="M454.1,416l1.5-0.6l0.4,0.9c0.3-0.9,0.8-1.5,1.5-1.9c0.4-0.2,0.8-0.2,1.2-0.2
		c0.4,0,0.7,0.2,1.1,0.5c0.1-0.5,0.3-0.8,0.6-1.1c0.2-0.3,0.6-0.5,0.9-0.7c0.5-0.2,0.9-0.3,1.3-0.2s0.8,0.2,1.1,0.5
		c0.2,0.2,0.5,0.6,0.7,1.3l1.7,4.1l-1.7,0.7l-1.6-3.7c-0.3-0.6-0.5-1-0.7-1.2c-0.3-0.2-0.5-0.2-0.9-0.1c-0.2,0.1-0.4,0.3-0.6,0.5
		s-0.2,0.5-0.2,0.8c0,0.3,0.2,0.8,0.4,1.4l1.3,3.1l-1.7,0.7l-1.5-3.5c-0.3-0.6-0.5-1-0.6-1.2c-0.1-0.2-0.3-0.3-0.4-0.3
		c-0.2,0-0.3,0-0.6,0.1c-0.3,0.1-0.5,0.3-0.6,0.5s-0.2,0.5-0.2,0.8c0,0.3,0.2,0.8,0.4,1.4l1.3,3.1l-1.7,0.7L454.1,416z"/>
	<path stroke="#FFFFFF" stroke-width="0.5558" d="M466.2,414.1c-0.3-0.5-0.6-1.1-0.6-1.7c-0.1-0.6,0-1.2,0.3-1.8
		c0.3-0.6,0.7-1,1.2-1.4c0.8-0.6,1.7-0.8,2.7-0.6c0.9,0.2,1.7,0.7,2.3,1.6c0.6,0.9,0.8,1.8,0.7,2.7c-0.2,0.9-0.6,1.7-1.5,2.3
		c-0.5,0.4-1.1,0.6-1.7,0.7c-0.6,0.1-1.2,0-1.8-0.3C467.2,415.2,466.7,414.7,466.2,414.1z M467.8,413.1c0.4,0.6,0.8,0.9,1.3,1
		s0.9,0.1,1.3-0.2c0.4-0.3,0.6-0.6,0.7-1.1c0.1-0.5-0.1-1-0.5-1.6c-0.4-0.6-0.8-0.9-1.3-1c-0.5-0.1-0.9-0.1-1.3,0.2
		s-0.6,0.6-0.7,1.1S467.4,412.5,467.8,413.1z"/>
	<path stroke="#FFFFFF" stroke-width="0.5558" d="M483.1,404.7l-1.3,1.3l-2.5-2.5c-0.5-0.5-0.9-0.9-1.1-1c-0.2-0.1-0.4-0.1-0.6-0.1
		c-0.2,0-0.4,0.1-0.6,0.3c-0.2,0.2-0.4,0.5-0.4,0.8s0,0.6,0.1,0.8s0.5,0.7,1,1.2l2.2,2.2l-1.3,1.3l-4.9-5l1.2-1.2l0.7,0.7
		c-0.1-1,0.1-1.8,0.8-2.4c0.3-0.3,0.6-0.5,0.9-0.6c0.3-0.1,0.6-0.2,0.9-0.1c0.3,0,0.5,0.1,0.8,0.3c0.2,0.2,0.6,0.4,0.9,0.8
		L483.1,404.7z"/>
	<path stroke="#FFFFFF" stroke-width="0.5558" d="M481.9,398.8l-1.3,1c-0.4-0.6-0.6-1.1-0.5-1.7c0-0.6,0.4-1.2,0.9-1.8
		c0.5-0.6,1-1,1.4-1.2c0.4-0.2,0.8-0.2,1.1-0.1c0.3,0.1,0.8,0.4,1.4,0.9l1.6,1.4c0.5,0.4,0.8,0.7,1.1,0.8s0.6,0.3,0.9,0.4l-1.2,1.3
		c-0.1,0-0.3-0.1-0.5-0.2c-0.1,0-0.2-0.1-0.2-0.1c0,0.4,0,0.8-0.1,1.2c-0.1,0.4-0.3,0.7-0.6,1c-0.5,0.5-1,0.8-1.5,0.9
		c-0.6,0.1-1.1-0.1-1.5-0.5c-0.3-0.3-0.5-0.6-0.6-0.9c-0.1-0.3-0.1-0.7,0-1c0.1-0.4,0.3-0.8,0.6-1.4c0.4-0.7,0.7-1.3,0.8-1.6
		l-0.1-0.1c-0.3-0.2-0.5-0.3-0.8-0.3c-0.2,0-0.5,0.2-0.8,0.6c-0.2,0.2-0.3,0.5-0.3,0.7C481.7,398.2,481.8,398.5,481.9,398.8z
		 M484.6,397.9c-0.1,0.2-0.3,0.6-0.5,1c-0.2,0.4-0.4,0.8-0.4,0.9c0,0.3,0.1,0.5,0.3,0.7c0.2,0.2,0.4,0.2,0.7,0.2
		c0.3,0,0.5-0.1,0.7-0.4c0.2-0.2,0.3-0.5,0.4-0.9c0-0.3,0-0.5-0.2-0.7c-0.1-0.1-0.3-0.4-0.6-0.6L484.6,397.9z"/>
	<path stroke="#FFFFFF" stroke-width="0.5558" d="M492.1,393.9l-7.9-5.4l3.9-5.8l1.3,0.9l-2.9,4.2l1.8,1.2l2.7-3.9l1.3,0.9l-2.7,3.9
		l2.2,1.5l3-4.3l1.3,0.9L492.1,393.9z"/>
	<path stroke="#FFFFFF" stroke-width="0.5558" d="M500.3,380.8l-0.8,1.4l-0.9-0.5c0.2,0.4,0.3,0.9,0.3,1.3c0,0.4-0.1,0.8-0.3,1.1
		c-0.4,0.7-1,1.1-1.8,1.3c-0.8,0.2-1.8,0-2.8-0.6c-1-0.6-1.7-1.3-1.9-2c-0.3-0.8-0.2-1.5,0.2-2.2c0.4-0.7,1-1.1,1.8-1.2l-3-1.7
		l0.9-1.6L500.3,380.8z M494.8,383.1c0.6,0.4,1.2,0.6,1.6,0.5c0.6,0,1-0.2,1.2-0.7c0.2-0.4,0.2-0.8,0.1-1.2
		c-0.2-0.4-0.6-0.8-1.2-1.2c-0.7-0.4-1.3-0.6-1.7-0.5c-0.4,0.1-0.8,0.3-1,0.7c-0.2,0.4-0.2,0.8-0.1,1.2S494.2,382.8,494.8,383.1z"/>
	<path stroke="#FFFFFF" stroke-width="0.5558" d="M503.3,374.8l-0.9-0.5c0.2,0.4,0.3,0.8,0.4,1.3c0,0.5-0.1,0.9-0.3,1.3
		c-0.2,0.4-0.5,0.7-0.8,1c-0.3,0.2-0.7,0.3-1.1,0.3c-0.4,0-0.9-0.2-1.5-0.5l-4-1.9l0.8-1.6l2.9,1.4c0.9,0.4,1.4,0.7,1.7,0.7
		c0.2,0,0.4,0,0.6-0.1c0.2-0.1,0.3-0.3,0.5-0.5c0.1-0.3,0.2-0.6,0.1-0.9s-0.2-0.5-0.4-0.7c-0.2-0.2-0.7-0.5-1.6-0.9l-2.6-1.3
		l0.8-1.6l6.2,3.1L503.3,374.8z"/>
	<path stroke="#FFFFFF" stroke-width="0.5558" d="M502.7,363.9l-0.4,1.8c-0.4-0.1-0.7-0.1-0.9,0.1c-0.2,0.1-0.4,0.3-0.6,0.7
		c-0.2,0.4-0.2,0.8,0,1.2c0.2,0.4,0.6,0.7,1.3,1c0.8,0.3,1.4,0.4,1.8,0.3s0.7-0.4,0.9-0.8c0.1-0.3,0.1-0.6,0-0.9
		c-0.1-0.3-0.4-0.6-0.8-0.8l1-1.5c0.7,0.5,1.1,1.1,1.3,1.7c0.2,0.6,0.1,1.4-0.2,2.2c-0.4,0.9-1,1.5-1.8,1.8
		c-0.8,0.3-1.8,0.2-2.8-0.2c-1.1-0.4-1.8-1.1-2.1-1.9c-0.4-0.8-0.3-1.7,0-2.6c0.3-0.8,0.7-1.3,1.3-1.6
		C501.3,363.9,501.9,363.8,502.7,363.9z"/>
	<path stroke="#FFFFFF" stroke-width="0.5558" d="M503.8,361.3l-0.8,1.4c-0.6-0.4-0.9-0.9-1.1-1.4c-0.2-0.5-0.1-1.2,0.2-2
		c0.3-0.8,0.6-1.3,0.9-1.6c0.3-0.3,0.6-0.5,1-0.5c0.3,0,0.9,0.1,1.6,0.3l2,0.7c0.6,0.2,1,0.3,1.3,0.4c0.3,0,0.6,0,1,0l-0.6,1.7
		c-0.1,0-0.3,0-0.6,0c-0.1,0-0.2,0-0.2,0c0.2,0.4,0.3,0.8,0.3,1.2c0,0.4,0,0.8-0.2,1.1c-0.2,0.7-0.6,1.1-1.1,1.4s-1,0.3-1.6,0.1
		c-0.4-0.1-0.7-0.3-0.9-0.6c-0.2-0.3-0.4-0.6-0.4-1c0-0.4,0-0.9,0.1-1.5c0.1-0.8,0.2-1.4,0.2-1.8l-0.2-0.1c-0.3-0.1-0.6-0.1-0.8,0
		c-0.2,0.1-0.4,0.4-0.5,0.8c-0.1,0.3-0.1,0.6-0.1,0.8C503.3,360.9,503.5,361.1,503.8,361.3z M506,359.5c0,0.2,0,0.6-0.1,1.1
		c-0.1,0.5-0.1,0.8,0,1c0.1,0.3,0.2,0.5,0.5,0.5c0.2,0.1,0.5,0.1,0.7,0s0.4-0.3,0.5-0.6c0.1-0.3,0.1-0.6,0-1
		c-0.1-0.3-0.2-0.5-0.4-0.6c-0.1-0.1-0.4-0.2-0.8-0.4L506,359.5z"/>
	<path stroke="#FFFFFF" stroke-width="0.5558" d="M507.4,349.9l-0.2,1.8c-0.4,0-0.7,0-0.9,0.2c-0.2,0.2-0.4,0.4-0.5,0.7
		c-0.1,0.4-0.1,0.8,0.1,1.2c0.2,0.4,0.7,0.6,1.4,0.9c0.8,0.2,1.4,0.3,1.8,0.1c0.4-0.2,0.7-0.5,0.8-0.9c0.1-0.3,0.1-0.6,0-0.9
		c-0.1-0.3-0.4-0.5-0.9-0.7l0.8-1.6c0.7,0.4,1.2,0.9,1.5,1.6s0.2,1.4,0,2.2c-0.3,1-0.8,1.6-1.6,2c-0.8,0.4-1.7,0.4-2.8,0.1
		c-1.1-0.3-1.9-0.9-2.3-1.6c-0.4-0.8-0.5-1.6-0.2-2.6c0.2-0.8,0.6-1.4,1.1-1.7C506,350.1,506.6,349.9,507.4,349.9z M513.1,356.9
		l-0.7-0.2c0.2-0.4,0.3-0.8,0.4-1.1c0.1-0.4,0.1-0.7,0-0.9c-0.1-0.2-0.2-0.3-0.3-0.3c-0.1,0-0.3,0-0.4,0.1c-0.1,0.1-0.3,0.3-0.3,0.5
		c-0.1,0.3-0.1,0.5-0.1,0.8l-0.6-0.3c0-0.4,0-0.7,0.1-1.1c0.2-0.5,0.4-0.9,0.7-1.1c0.3-0.2,0.6-0.2,1-0.1c0.4,0.1,0.6,0.3,0.8,0.7
		c0.2,0.5,0.2,1.1-0.1,1.8C513.4,356.2,513.2,356.6,513.1,356.9z"/>
	<path stroke="#FFFFFF" stroke-width="0.5558" d="M505.3,346.4l-0.2,0.8c-0.1,0-0.2,0-0.2-0.1c-0.4-0.1-0.8-0.3-0.9-0.6
		c-0.2-0.3-0.2-0.6-0.1-0.9c0-0.1,0.1-0.3,0.2-0.4c0.1-0.1,0.2-0.3,0.4-0.6c0.2-0.3,0.4-0.5,0.4-0.7c0-0.1,0-0.3,0-0.4
		c-0.1-0.1-0.2-0.2-0.4-0.3l0.2-0.8c0.6,0.2,1,0.4,1.1,0.6c0.2,0.3,0.2,0.6,0.2,0.9c0,0.1-0.1,0.3-0.2,0.4c-0.1,0.1-0.2,0.3-0.5,0.6
		s-0.4,0.6-0.4,0.8c0,0.1,0,0.2,0,0.3C505,346.3,505.1,346.4,505.3,346.4z M508.2,347.2l-0.7,1.5c-0.6-0.3-1-0.8-1.2-1.3
		c-0.2-0.5-0.2-1.2,0-2.1c0.2-0.8,0.4-1.3,0.7-1.7c0.3-0.3,0.6-0.5,0.9-0.6c0.3-0.1,0.9,0,1.7,0.2l2.1,0.6c0.6,0.2,1,0.2,1.3,0.3
		c0.3,0,0.6,0,1-0.1l-0.4,1.7c-0.1,0-0.3,0-0.6,0c-0.1,0-0.2,0-0.2,0c0.2,0.4,0.4,0.8,0.4,1.1c0.1,0.4,0,0.8-0.1,1.1
		c-0.2,0.7-0.5,1.2-1,1.5c-0.5,0.3-1,0.4-1.6,0.2c-0.4-0.1-0.7-0.3-1-0.5c-0.3-0.3-0.4-0.6-0.5-0.9c-0.1-0.4-0.1-0.9-0.1-1.5
		c0.1-0.9,0.1-1.5,0-1.8l-0.2,0c-0.3-0.1-0.6-0.1-0.8,0.1c-0.2,0.1-0.3,0.4-0.5,0.9c-0.1,0.3-0.1,0.6,0,0.8
		C507.7,346.9,507.9,347.1,508.2,347.2z M510.3,345.3c0,0.2,0,0.6,0,1.1s0,0.8,0.1,1c0.1,0.3,0.3,0.4,0.5,0.5c0.2,0.1,0.5,0,0.7-0.1
		s0.4-0.3,0.5-0.6c0.1-0.3,0.1-0.6-0.1-1c-0.1-0.3-0.3-0.4-0.5-0.6c-0.1-0.1-0.4-0.2-0.9-0.3L510.3,345.3z"/>
	<path stroke="#FFFFFF" stroke-width="0.5558" d="M510.8,342.1c-0.6-0.1-1.2-0.4-1.7-0.8c-0.5-0.4-0.8-0.9-1-1.5
		c-0.2-0.6-0.2-1.2-0.1-1.9c0.2-1,0.7-1.8,1.5-2.3c0.8-0.5,1.7-0.6,2.7-0.4c1,0.2,1.8,0.7,2.4,1.5c0.5,0.8,0.7,1.7,0.5,2.7
		c-0.1,0.6-0.4,1.2-0.8,1.7c-0.4,0.5-0.9,0.8-1.5,1C512.3,342.2,511.6,342.3,510.8,342.1z M511.3,340.3c0.7,0.1,1.2,0.1,1.7-0.1
		c0.4-0.2,0.7-0.6,0.8-1c0.1-0.5,0-0.9-0.3-1.3c-0.3-0.4-0.8-0.7-1.5-0.8c-0.7-0.1-1.2-0.1-1.7,0.1c-0.4,0.2-0.7,0.6-0.8,1
		c-0.1,0.5,0,0.9,0.3,1.3C510.1,339.9,510.6,340.2,511.3,340.3z"/>
</g>
<g>
	<path fill="#FFFFFF" stroke="#000000" stroke-width="0.5558" d="M368.6,392.7c1.6,0.3,4.4,0.9,5.3,2.8c1.1,2.4,1.3,5,0.7,8
		c0.8,0.3,1.5,0.6,2.1,0.9c0.6,0.3,1.2,0.8,1.9,1.4l-0.5,0.6c-0.7-0.5-1.3-0.9-1.8-1.1c-0.5-0.2-1-0.2-1.5-0.2
		c-0.5,0.1-1.1,0.3-1.9,0.6c-0.3,0.1-0.6,0.3-1,0.5l-10.8,5.3c-1.2,0.6-1.9,1.1-2.2,1.5c-0.2,0.3-0.2,0.6-0.1,0.8
		c0.1,0.3,0.6,0.6,1.4,0.9l-0.4,0.7l-3.6-1.7l-1.2-0.6c0-0.9,0.2-1.7,0.7-2.3c0.4-0.6,1.3-1.2,2.6-1.9l-6.9-3.7
		c0.6-4.2,0.7-6.8,0.2-8c-0.1-0.3-0.3-0.5-0.6-0.6c-0.2-0.1-0.4-0.1-0.6,0c-0.3,0.1-0.5,0.3-0.7,0.7c-0.3,0.4-0.5,0.7-0.6,0.7
		c-0.2,0.1-0.4,0.1-0.6,0c-0.2-0.1-0.3-0.2-0.4-0.4c-0.1-0.2-0.1-0.5,0-0.7c0.2-0.3,0.5-0.6,0.9-0.8c0.5-0.2,1.1-0.3,1.8-0.3
		c0.7,0,1.5,0.1,2.4,0.3c0.2,0,0.4,0.1,0.5,0.1l4.6,0.9 M366.5,389.5 M362.1,390.2 M359.2,392.6 M356.8,396.9 M357.2,397.8l-2.4-0.5
		l0.2,9l4.2,2.3l2.4-1.2L357.2,397.8z M358.1,397.2l8.9,1.9c0.1-0.9-0.1-1.7-0.3-2.3c-0.4-0.8-1.1-1.3-2.1-1.5
		c-0.2,0-0.3-0.1-0.4-0.2c0-0.1,0-0.1,0-0.2c0-0.1,0.1-0.1,0.2-0.2c0.3-0.1,0.8-0.2,1.5-0.1s1.3,0.3,1.9,0.8c0.6,0.5,1.1,1,1.4,1.7
		c0.3,0.7,0.5,1.5,0.6,2.6l2,0.4c0-1.5-0.2-2.9-0.8-4.1c-0.6-1.3-1.4-2.4-2.5-3.3 M371.2,402.6c0.2-0.4,0.3-0.7,0.3-0.9
		c0-0.1,0.1-0.4,0.2-1l-11.7-2.4l3.6,8L371.2,402.6z"/>
	<path fill="#FFFFFF" stroke="#000000" stroke-width="0.5558" d="M390.5,427.8l-2.4-0.5l-5.8,4.6c-0.7,0.6-1.2,0.9-1.5,1
		c-0.4,0.2-0.9,0.2-1.5,0.2c-1.2-0.1-2.7-0.3-4.5-0.7c-0.2,1.3-0.2,2.5,0,3.6c0.2,1,0.5,1.9,1,2.9l0.8,1.3l0.3,0.4
		c0.9,1.2,2,2.2,3.2,2.8c1.2,0.7,2.7,1.2,4.4,1.5l-0.1,0.7c-1.7,0.1-3.2-0.1-4.3-0.4c-1.2-0.3-2.4-0.8-3.6-1.6
		c-1.2-0.8-2.2-1.7-3-2.8c-1.2-1.6-2-3.4-2.3-5.3s-0.1-3.9,0.7-5.8c0.8-1.9,1.9-3.4,3.4-4.6c1.8-1.4,4-2.2,6.4-2.3
		c1.9-0.1,4.2,0.4,6.9,1.4l-0.1,0.6c-1.8-0.6-3.5-0.8-5-0.7c-1.9,0.2-3.6,0.8-5,2c-1.8,1.4-3,3.3-3.6,5.7c0.8,0.2,1.4,0.2,1.8,0.1
		c0.4-0.1,1.2-0.7,2.5-1.7l5.7-4.5l8.8,2c0.5,1.7,0.9,2.9,1.4,3.8s1,1.8,1.8,2.8l0.2,0.3l-0.3,0.6l-3.7-0.5
		C392.2,433.1,390.5,427.8,390.5,427.8z"/>
	<path fill="#FFFFFF" stroke="#000000" stroke-width="0.5558" d="M410.1,468.9l-3.7,1.2c-0.8-1.2-1.6-2.1-2.4-2.9
		c-0.8-0.8-1.6-1.4-2.6-2c-0.9-0.6-1.9-1-2.9-1.3c-1-0.3-2.2-0.6-3.7-0.8l-0.1-0.9c2.7-0.4,4.7-0.9,6.2-1.6c0.7-0.3,1.2-0.8,1.5-1.3
		c0.3-0.5,0.4-1,0.2-1.5c-0.1-0.5-0.4-0.9-0.9-1.2c-0.4-0.2-0.9-0.2-1.4,0l-0.4-0.5c0.5-0.5,1-0.7,1.6-0.8c0.6-0.1,1.1,0,1.6,0.3
		c0.3,0.2,0.6,0.5,0.9,0.8c0.3,0.3,0.5,0.8,0.7,1.3c0.2-0.3,0.4-0.5,0.5-0.8c0.6-1,0.8-2,0.6-2.9c-0.2-1-0.7-1.7-1.5-2.2
		c-0.5-0.3-1.1-0.3-1.8-0.2l-0.3-0.5c0.6-0.5,1.2-0.7,1.8-0.8c0.6,0,1.2,0.1,1.8,0.4c0.3,0.2,0.6,0.4,0.9,0.8
		c0.3,0.3,0.5,0.8,0.8,1.2c0.2-0.4,0.4-0.8,0.6-1c0.5-0.9,1.1-1.5,1.9-2c0.7-0.5,2.5-1.1,5.1-1.8c-1.3,0-2.3-0.1-3-0.3
		c-0.7-0.2-1.3-0.4-1.9-0.7c-0.3-0.2-0.7-0.5-1.1-0.8c-0.4-0.4-0.7-0.6-0.9-0.7c-0.7-0.4-1.4-0.6-2-0.5c-0.7,0.1-1.5,0.4-2.4,1
		l-0.4-0.4c0.7-0.8,1.4-1.4,2-1.7c0.9-0.5,1.8-0.7,2.7-0.8c0.9,0,1.7,0.2,2.3,0.6c0.5,0.3,1.1,0.8,1.7,1.5c0.6,0.7,1.2,1.2,1.7,1.5
		c0.8,0.5,1.8,0.8,3,0.8l0.3,0.6c-1.4,0.7-2.8,1.6-4,2.8c-1.2,1.2-2.3,2.5-3,3.8l-2.3,4c-0.4,0.6-0.8,1.1-1.2,1.5
		c-0.5,0.4-1,0.7-1.6,0.9c-0.6,0.2-0.9,0.3-1.1,0.3l-6.1,1c0.9,0,1.9,0.1,2.9,0.3c1.9,0.3,3.2,0.3,4.1,0.2c0.9-0.1,1.7-0.4,2.5-0.9
		c0.8-0.5,1.5-1.3,2.1-2.4l2.5-4.4c0.6-1.1,1.5-2.1,2.7-3.3c1.2-1.1,2.6-2.2,4.4-3.1l0.3,0.6c-1.6,0.9-2.8,1.7-3.7,2.5
		c-0.9,0.8-1.8,1.9-2.7,3.2l7.8-1.1l1,5.8l-7.8,0.6c0.6,1,1,2,1.2,3c0.2,1.1,0.4,2.6,0.3,4.5c0,1.9,0,3.1,0.1,3.4
		c0.1,0.3,0.2,0.5,0.4,0.6c0.2,0.1,0.6,0.1,1.1-0.1l1.1-0.3l0.1,0.8l-5.4,1.3c-0.3-0.6-0.5-1.2-0.5-1.7c-0.1-0.5-0.1-1.7,0-3.7
		l0-1.7c-0.1-1.7-0.3-3-0.7-3.9c-0.4-1-1.1-1.7-1.9-2.3c-0.6,1-1.4,1.8-2.2,2.3s-1.8,0.8-3.1,0.9c1.4,0.9,2.4,1.7,2.9,2.2
		c0.6,0.6,1.1,1.3,1.7,2.2l0.8-0.3L410.1,468.9z M417.7,455.5l-5.2,0.7l-0.2,0.4l-1.3,2.2l-0.8,1.3l8.3-0.6L417.7,455.5z"/>
	<path fill="#FFFFFF" stroke="#000000" stroke-width="0.5558" d="M456.3,466.7l-1.9,2.9h-13.2l3.4-2.9H456.3z M442.9,475.2
		c0.9,0.8,1.7,1.5,2.6,1.9c0.8,0.4,1.8,0.7,2.9,0.9l1.6,0.1l0.7,0c1.5,0,3-0.5,4.5-1.3c1.1-0.6,2.3-1.5,3.5-2.8l0.4,0.6
		c-1.2,2-2.6,3.5-4,4.5c-1.8,1.2-3.9,1.8-6.3,1.9c-3.7,0.1-6.7-1.1-8.9-3.7c-1.8-2-2.7-4.4-2.7-7.2c0-1.7,0.3-3.3,0.9-4.8
		c0.7-1.5,1.6-2.8,2.9-4c0.9-0.8,2.1-1.7,3.6-2.5l0.3,0.5c-1.8,1.2-3,2.5-3.8,4.1c-0.8,1.5-1.2,3.1-1.2,4.8c0,2.1,0.7,4,2.1,5.9
		L442.9,475.2z M441.1,465.3c-0.4-0.4,9.1-8.7,9.1-8.7c1.3,0.6,2.5,1,3.4,1.3c0.9,0.2,1.8,0.3,2.7,0.3c0.5,0,1-0.1,1.7-0.2l0.4,0.5
		l-2.8,3l-7.3-1.8C448.2,459.7,441.5,465.7,441.1,465.3z"/>
	<path fill="#FFFFFF" stroke="#000000" stroke-width="0.5558" d="M479,448.2l-1.1,1.9l7.9,11.6c0.9,1.3,1.4,2.4,1.6,3.1
		c0.1,0.8,0,1.7-0.4,2.7c0.9-0.7,1.4-1.3,1.6-1.9c0.3-0.8,0.4-1.7,0.2-2.4c-0.2-0.8-0.8-1.9-1.8-3.4L479,448.2z M493.8,450.4
		c-0.1-0.5-0.3-1-0.5-1.4c-0.3-0.7-0.6-1.3-0.9-1.8c-0.2-0.2-0.4-0.5-0.6-0.7l-1.5-1.2c-1.3-0.8-2.7-1.1-4.2-1.1
		c-1.7,0-3.3,0.6-4.8,1.6c-0.6,0.4-1.3,1-1.9,1.8c0,0,9.8,14.1,10.1,14.8c0.7,2-0.1,4.9-0.6,5.9c-0.5,1-1.2,1.8-2.1,2.4
		c-0.3,0.2-0.7,0.4-1.1,0.6c-0.2,0.1-0.9,0.3-2,0.7c-1.1,0.4-1.7,0.6-1.9,0.6c-0.3,0.1-0.6,0.3-0.8,0.5c-0.4,0.3-0.7,0.6-1,0.9
		c-0.2,0.3-0.8-2.5,0.7-3.6c0.6-0.4,1.5-0.9,2.7-1.4c0.7-0.3,1.2-0.5,1.4-0.7c0.5-0.3,0.8-0.8,0.8-1.4c0.1-0.6-0.1-1.2-0.5-1.9
		c-0.5-0.8-1.3-1.3-2.2-1.4s-1.7,0-2.5,0.6c-0.5,0.4-0.9,1-1.2,1.8l-0.6-0.1c0.1-0.8,0.2-1.4,0.4-1.9c0.2-0.5,0.6-0.9,1.1-1.2
		c0.3-0.2,0.6-0.4,1-0.5c0.4-0.1,0.8-0.2,1.3-0.2c-0.7-0.7-1.4-1.1-2-1.3c-1.2-0.3-2.2-0.1-3.2,0.6c-0.4,0.3-0.7,0.6-1,0.9
		c-0.2,0.2-0.3,0.6-0.5,1l-0.6-0.2c0.1-0.8,0.4-1.5,0.6-1.9c0.3-0.5,0.6-0.9,1.1-1.2c0.4-0.3,0.8-0.5,1.3-0.6
		c0.4-0.1,1.1-0.2,1.9-0.2c-0.5-0.7-1-1.2-1.5-1.5c-0.5-0.3-1.2-0.4-2-0.3c-0.8,0.1-1.5,0.3-2.1,0.7c-0.5,0.4-0.9,0.9-1.2,1.6
		l-0.6-0.2c0.1-0.7,0.3-1.3,0.5-1.7c0.3-0.5,0.7-1,1.2-1.3c0.4-0.3,0.9-0.5,1.3-0.6c0.5-0.1,1.1-0.2,1.9-0.2l-2-3l6.2-10.9
		c1.8-0.7,3.4-1.1,4.6-1.1c1.7-0.1,3.2,0.3,4.6,0.9c1.4,0.7,2.5,1.6,3.3,2.9c0.6,0.9,1,1.9,1.3,2.9c0.3,1.1,0.5,2.4,0.5,3.9
		c0,0.5-0.1,2.9-0.2,7.2c0.7-1.2,1.7-2.2,2.7-2.9c0.5-0.3,0.9-0.6,1.2-0.7c0.4-0.2,0.6-0.3,0.8-0.4c0.2-0.1,0.2-0.3,0.3-0.5
		c0-0.2,0-0.9-0.2-2.1l0.8-0.2l0.7,5.9c-1.5,0.4-2.6,0.9-3.4,1.5c-0.9,0.6-1.5,1.3-1.9,2.1c-0.3,0.8-0.5,1.7-0.4,3l-0.7,0.1
		c-0.3-1.1-0.6-2.6-0.7-4.5c-0.2-2.8-0.5-5.1-0.8-6.9L493.8,450.4z"/>
	<path fill="#FFFFFF" stroke="#000000" stroke-width="0.5558" d="M514.5,425.4c1,3.5,2.5,9.5,3.1,13.5c0.7-3.4,1.9-6.3,3.6-8.6
		c0.5-0.8,1.1-1.4,1.8-2c0.6-0.5,1.4-1.1,2.4-1.6l-0.7-2.7l0.7-0.1l1.5,5.6c-1.3,0.8-2.5,1.5-3.3,2.3c-0.9,0.8-1.7,1.7-2.5,2.8
		c-0.8,1.1-1.4,2.2-1.9,3.4c-0.5,1.2-0.9,2.6-1.2,4.2l-0.7,0c-0.4-1.9-0.8-3.4-1.3-4.8c-0.4-1.2-2.8-6.2-4.2-9.6
		c-1.3-3.5-2.1-9.7-2.5-12.3c-0.3,1.8-0.6,3.3-1.1,4.4c-0.4,1.2-1.1,2.3-1.8,3.4c-0.6,0.9-1.3,1.6-2,2.2c-0.5,0.4-1.2,0.9-2.1,1.3
		l0.8,3.1l-0.7,0.2l-1.5-6.2c1.3-0.7,2.4-1.4,3.3-2.1s1.6-1.5,2.2-2.4c0.6-0.9,1.1-1.8,1.5-2.8c0.4-1,0.7-2.3,1-3.9l0.6-0.2
		c0.5,1.5,1,2.9,1.5,4C511.2,417.6,513.5,422,514.5,425.4z"/>
	<path fill="#FFFFFF" stroke="#000000" stroke-width="0.5558" d="M527.2,403.4c-0.1-0.9-1.5-2.5-1.1-3.4c0.1-0.1,0.1-0.3,0.2-0.5
		c-1.6-0.7-2.8-1.6-3.6-2.5c-0.8-0.9-1.7-2.2-2.4-4.1c0,1.4,0,2.3,0,2.7s-0.1,0.8-0.3,1.1 M537.7,406.4c-0.8,0.5-3.4,2.5-3.4,1.8
		c0-0.7,0.2-1.6,0.6-2.7c0.4-1.1,0.5-2,0.3-2.6c-0.2-0.6-0.8-1.1-1.6-1.4c-1.7-0.8-3.2-1-4.4-0.7c-0.9,0.2-1.5,0.7-1.8,1.5
		c-0.1,0.3-0.2,0.7-0.2,1.1 M537.3,403.8c-0.6,1.4,3-1.2,2.5-3.9c-0.1-0.7-0.4-1.9-1.1-2.3c-0.9-0.4-2.7-1.2-5.5-1.9
		c-3.3-0.8-5.7-1.6-7.2-2.3c-1.4-0.6-2.5-1.3-3.1-2.1s-1.1-1.7-1.3-2.7c-0.1-0.8-0.1-1.8,0.2-3l0.6,0c-0.1,1.2-0.1,2.1,0.3,2.7
		c0.3,0.6,0.9,1.1,1.8,1.5c1.1,0.5,3,1.1,5.9,1.8c2.3,0.6,3.8,1,4.4,1.2c0.6,0.2,1.2,0.4,1.8,0.7c1.6,0.7,2.7,1.6,3.5,2.6
		c0.8,1.1,1.2,2.1,1.3,3.3c0.1,1.1,0,2.1-0.4,2.8c-0.7,1.5-2,3-3.6,4.4 M519.9,396.8c0.2-0.4-0.9-0.6-0.9-1.3
		c-0.1-1.1-0.1-1.3,0.1-2.1c0.2-0.6,0.4-1,0.5-1.4c0.1-0.4,0.1-1,0.1-1.7l0.6-0.2c0.4,1.4,0.9,2.5,1.6,3.3c0.7,0.8,1.8,1.5,3.4,2.2
		c0.8,0.4,1.5,0.7,2.2,0.9c0.3,0.1,1.2,0.4,2.9,0.8c2,0.6,3.4,1,4,1.2c1.1,0.5,3,1.2,3.6,2c0.7,0.9,0.2,3-0.9,3.6"/>
	<g>
		<path fill="#FFFFFF" stroke="#000000" stroke-width="0.5558" d="M360.7,365.7L360.7,365.7l0.9,0.9l-1.4,3.1l-15,3.6
			c-1.5,0.4-2.5,0.8-3,1.3c-0.5,0.5-0.9,1.2-1.1,2.3l3.9,3.1l0.5-0.6c-0.6-0.4-1-0.8-1-1c-0.1-0.3,0-0.7,0.3-0.9
			c0.3-0.3,1-0.6,2.3-0.9l12.1-2.9c1-0.2,1.7-0.3,2.3-0.2c0.5,0.1,1.3,0.4,2.2,0.9l0.4-0.6l-1.8-1.1l1.9-4.5l-5.4-5.3
			c0,0,0.9-0.3,1.5-0.7c0.7-0.5,1.2-1.2,1.5-2c0.3-0.8,0.3-1.8,0.1-2.8c-0.2-0.9-0.5-1.7-1-2.3l-5.4-4.7c0.9-0.2,1.5-0.5,2-0.8
			c0.7-0.5,1.2-1.2,1.5-2c0.3-0.8,0.3-1.7,0.1-2.8c-0.2-0.9-0.5-1.7-1-2.3c-0.5-0.6-1.2-1.2-2.3-1.8l-0.3,0.6c0.5,0.4,0.8,0.7,1,1
			c0.2,0.3,0.4,0.6,0.4,1c0.1,0.7,0.1,1.3-0.2,1.9c-0.3,0.6-0.7,1.1-1.3,1.4c-0.6,0.3-1.6,0.6-3,1l-2.7-2.4c-1.2-1-2-1.9-2.5-2.6
			l-0.7,0.2c-0.1,0.9-0.2,1.7-0.4,2.2c-0.3,0.9-0.7,1.7-1.3,2.5c-0.6,0.8-1.2,1.5-1.8,1.9c-0.6,0.4-1.5,0.7-2.5,1l-0.7,0.2
			c-0.6-1.4-1.3-2.6-2.2-3.5s-2.1-1.7-3.8-2.4l-0.3,0.5c0.9,0.7,1.5,1.3,1.9,1.9c0.8,1.1,1.3,2.4,1.6,3.8c0.2,1.1,0.3,2.2,0.2,3.3
			c-0.1,1.1-0.4,2.5-0.8,4.2l4.4,3.2l0.5-0.6l-1.8-1.3c0.6-1.8,0.9-1.8,0.9-4.3l15.8-3.5l2.9,2.5c0,0,0,0,0,0
			c0.1,0.1,0.2,0.2,0.3,0.4c0.2,0.3,0.4,0.6,0.4,1c0.1,0.7,0.1,1.3-0.2,1.9c-0.3,0.6-1,1.4-1.6,1.7l-0.1,0.1c-0.4,0.2-1,0.4-1.6,0.5
			l-4.7,1.1l-0.8-3.5l-1.9,1.8l0.4,2.3l-4.5,1.1c-1,0.2-1.7,0.3-2,0.3c-0.4-0.1-0.7-0.3-1-0.8l-0.6,0.1c-0.2,0.6-0.4,1.2-0.6,1.6
			c-0.4,0.7-1,1.6-1.8,2.7l6.2,4.7l0.4-0.6l-1.3-1.2l6.6-1.6 M347.4,346.7c0.2-0.5,0.4-1.1,0.6-1.8l3.2,2.9l-5.1,1.1
			C346.8,348,347.2,347.2,347.4,346.7z M340,355.2c0-0.5,0-1.1,0-1.6l14.3-3.2l1.3,1.1 M343.1,369.2c-0.5-0.4-0.8-0.7-0.9-0.9
			c-0.1-0.5,0.1-1,0.7-1.5c0.4-0.3,1.2-0.6,2.6-0.9l4.1-1l0.6,2.6L343.1,369.2z M352.7,366.9l-0.6-2.6l5.7-1.4l2.3,2.2"/>
		<g>
			<path fill="none" stroke="#000000" stroke-width="0.5558" d="M347.4,346.7c0.2-0.5,0.4-1.1,0.6-1.8l3.2,2.9l-5.1,1.1
				C346.8,348,347.2,347.2,347.4,346.7z M342.8,369c-0.3-0.3-0.5-0.5-0.6-0.7c-0.1-0.5,0.1-1,0.7-1.5c0.4-0.3,1.2-0.6,2.6-0.9l4.1-1
				l0.9,3.6l2-2.1l0.1,0.3l-0.1-0.3l-0.5-2.1l5.7-1.4l2,1.9l1.2,1.2l0.6,0.6l-1.4,3.1l-15,3.6c-1.5,0.4-2.5,0.8-3,1.3
				c-0.5,0.5-0.9,1.2-1.1,2.3l3.9,3.1l0.5-0.6c-0.6-0.4-1-0.8-1-1c-0.1-0.3,0-0.7,0.3-0.9c0.3-0.3,1-0.6,2.3-0.9l12.1-2.9
				c1-0.2,1.7-0.3,2.3-0.2c0.5,0.1,1.3,0.4,2.2,0.9l0.4-0.6l-1.8-1.1l1.9-4.5l-5.4-5.3c0,0,0.9-0.3,1.5-0.7c0.7-0.5,1.2-1.2,1.5-2
				c0.3-0.8,0.3-1.8,0.1-2.8c-0.2-0.9-0.5-1.7-1-2.3l-5.4-4.7c0.9-0.2,1.5-0.5,2-0.8c0.7-0.5,1.2-1.2,1.5-2c0.3-0.8,0.3-1.7,0.1-2.8
				c-0.2-0.9-0.5-1.7-1-2.3c-0.5-0.6-1.2-1.2-2.3-1.8l-0.3,0.6c0.5,0.4,0.8,0.7,1,1c0.2,0.3,0.4,0.6,0.4,1c0.1,0.7,0.1,1.3-0.2,1.9
				c-0.3,0.6-0.7,1.1-1.3,1.4c-0.6,0.3-1.6,0.6-3,1l-2.7-2.4c-1.2-1-2-1.9-2.5-2.6l-0.7,0.2c-0.1,0.9-0.2,1.7-0.4,2.2
				c-0.3,0.9-0.7,1.7-1.3,2.5c-0.6,0.8-1.2,1.5-1.8,1.9c-0.6,0.4-1.5,0.7-2.5,1l-0.7,0.2c-0.6-1.4-1.3-2.6-2.2-3.5s-2.1-1.7-3.8-2.4
				l-0.3,0.5c0.9,0.7,1.5,1.3,1.9,1.9c0.8,1.1,1.3,2.4,1.6,3.8c0.2,1.1,0.3,2.2,0.2,3.3c-0.1,1.1-0.4,2.5-0.8,4.2l4.4,3.2l0.5-0.6
				l-1.8-1.3c0.4-1.2,0.6-2.2,0.8-3.2l0.1-1.1c0-0.5,0-1.1,0-1.6l14.3-3.2l1.3,1.1l1.6,1.3l1.5,1.4c0,0,0,0,0,0
				c0.1,0.1,0.2,0.2,0.3,0.4c0.2,0.3,0.4,0.6,0.4,1c0.1,0.7,0.1,1.3-0.2,1.9c-0.3,0.6-1,1.4-1.6,1.7l-0.1,0.1
				c-0.4,0.2-1,0.4-1.6,0.5l-4.7,1.1l-0.8-3.5l-1.9,1.8l0.4,2.3l-4.5,1.1c-1,0.2-1.7,0.3-2,0.3c-0.4-0.1-0.7-0.3-1-0.8l-0.6,0.1
				c-0.2,0.6-0.4,1.2-0.6,1.6c-0.4,0.7-1,1.6-1.8,2.7l6.2,4.7l0.4-0.6l-1.1-0.8L342.8,369z"/>
		</g>
	</g>
	<path fill="#FFFFFF" stroke="#000000" stroke-width="0.5558" d="M540.7,356.6l2.4,2.5l-3.1,12.8l-2.1-4L540.7,356.6z M545.9,371.6
		c1-0.6,1.8-1.3,2.5-2c0.6-0.7,1.1-1.6,1.5-2.6l0.5-1.5l0.2-0.7c0.3-1.5,0.3-3.1-0.2-4.7c-0.3-1.2-1-2.6-1.9-4l0.7-0.3
		c1.7,1.6,2.8,3.3,3.4,5c0.7,2,0.9,4.2,0.4,6.5c-0.8,3.6-2.7,6.2-5.7,7.8c-2.4,1.2-4.9,1.5-7.6,1c-1.7-0.4-3.2-1.1-4.5-2.1
		c-1.3-1-2.4-2.2-3.3-3.7c-0.6-1.1-1.1-2.4-1.6-4.1l0.6-0.2c0.7,2,1.8,3.6,3,4.7s2.8,1.9,4.4,2.3c2,0.4,4.1,0.2,6.2-0.6L545.9,371.6
		z M535.9,371c-0.4,0.3-6.3-10.9-6.3-10.9c0.9-1.1,1.6-2.1,2-3c0.4-0.8,0.8-1.7,0.9-2.5c0.1-0.4,0.2-1,0.2-1.7l0.6-0.3l2.2,3.4
		l-3.4,6.7C532.1,362.8,536.3,370.7,535.9,371z"/>
	<path fill="none" stroke="#000000" stroke-width="0.5558" d="M510.7,413.6c0.5,1,2.9,5.3,4.1,8.7s2.9,10,3.5,14"/>
</g>
<g>
	<g>
		<rect x="391.2" y="271.1" fill="none" stroke="#000000" stroke-width="0.7234" width="18.8" height="22.5"/>
		<rect x="393.6" y="274.5" fill="none" stroke="#000000" stroke-width="0.7234" width="16" height="19.2"/>
		<rect x="395.8" y="277.3" fill="none" stroke="#000000" stroke-width="0.7234" width="13.6" height="16.3"/>
		<rect x="397.8" y="279.8" fill="none" stroke="#000000" stroke-width="0.7234" width="11.5" height="13.8"/>
		<rect x="399.6" y="281.9" fill="none" stroke="#000000" stroke-width="0.7234" width="9.8" height="11.8"/>
		<rect x="401.3" y="283.6" fill="none" stroke="#000000" stroke-width="0.7234" width="8.3" height="10"/>
		<rect x="402.9" y="285.1" fill="none" stroke="#000000" stroke-width="0.7234" width="7.1" height="8.5"/>
		<line fill="none" stroke="#000000" stroke-width="0.7234" x1="390.8" y1="271.6" x2="404.4" y2="287"/>
	</g>
	<rect x="404.4" y="286.4" fill="none" stroke="#000000" stroke-width="0.7234" width="6" height="7.2"/>
</g>
<g>
	<g>
		<rect x="481.5" y="271.1" fill="none" stroke="#000000" stroke-width="0.7076" width="18" height="22.5"/>
		<rect x="481.9" y="274.5" fill="none" stroke="#000000" stroke-width="0.7076" width="15.3" height="19.2"/>
		<rect x="482.1" y="277.3" fill="none" stroke="#000000" stroke-width="0.7076" width="13" height="16.3"/>
		<rect x="482.2" y="279.8" fill="none" stroke="#000000" stroke-width="0.7076" width="11" height="13.8"/>
		<rect x="482.1" y="281.9" fill="none" stroke="#000000" stroke-width="0.7076" width="9.4" height="11.8"/>
		<rect x="481.8" y="283.6" fill="none" stroke="#000000" stroke-width="0.7076" width="8" height="10"/>
		<rect x="481.5" y="285.1" fill="none" stroke="#000000" stroke-width="0.7076" width="6.8" height="8.5"/>
		<line fill="none" stroke="#000000" stroke-width="0.7076" x1="499.9" y1="271.6" x2="486.8" y2="287"/>
	</g>
	<rect x="481.1" y="286.4" fill="none" stroke="#000000" stroke-width="0.7076" width="5.8" height="7.2"/>
</g>
<path fill="#FFFFFF" stroke="#000000" stroke-width="0.7942" d="M445.5,222.8h-0.7l-0.5,0.4c-17.8,12-33.2,8.4-33.4,8.4l-1.5-0.4
	l-0.8,1.4l-9.4,17.1l1.1,1.3c2.6,3.1,7,14.6,7,56.8c0,34.4,35.6,57.6,37.1,58.6l0.5,0.3h1.3l0.5-0.3c1.5-1,37.1-24.2,37.1-58.6
	c0-42.2,4.4-53.7,7-56.8l1.1-1.3l-10.2-18.5l-1.5,0.4c-0.2,0-15.6,3.6-33.3-8.4l-0.5-0.4H445.5z M445.4,227.8
	c15.7,10.2,29.4,9.2,33.9,8.5c1.1,2.1,6,10.9,7.1,12.9c-4.8,7.6-7.1,26.8-7.1,58.5c0,28.6-28.1,49.8-34,53.9
	c-5.8-4.1-34-25.3-34-53.9c0-31.7-2.3-50.9-7.1-58.5c1.1-2,6-10.8,7.1-12.9C416,237,429.7,238,445.4,227.8z"/>
<path fill="#FFFFFF" stroke="#000000" stroke-width="0.7729" d="M445.5,199.3h-0.7l-0.5,0.3c-26.5,16.4-49.5,11.4-49.8,11.4
	l-2.5-0.6l0.1,2.9c0,0.1,0.1,7.4-2.6,13.5c-2.8,6.4-10.4,16-10.5,16.1l-1.3,1.7l1.4,1.5c5.7,6.2,10.9,18.5,10.9,66
	c0,19,9.4,38.5,27.3,56.4c13.3,13.4,26.5,21.1,27,21.4l0.4,0.3h1.1l0.4-0.3c0.6-0.3,13.7-8,27-21.4c17.9-17.9,27.3-37.4,27.3-56.4
	c0-47.6,5.2-59.8,10.9-66l1.4-1.6l-1.3-1.7c-0.1-0.1-7.9-9.9-10.5-16.1c-2.5-6-2.6-13.6-2.6-13.7l0-2.8l-2.4,0.5
	c-0.2,0.1-23.3,5-49.8-11.4l-0.5-0.3H445.5z M445.4,204.1c22.9,13.8,42.7,12.6,49.3,11.7c0.2,3.1,0.9,8.3,2.9,13
	c2.2,5.3,7.5,12.4,9.9,15.6c-6.5,8.4-10.8,24.1-10.8,67.7c0,39.9-44.5,69-51.3,73.2c-6.7-4.2-51.3-33.3-51.3-73.2
	c0-43.6-4.3-59.4-10.8-67.8c2.4-3.1,7.5-10.2,9.9-15.5c2.1-4.7,2.8-9.9,2.9-13C402.8,216.7,422.6,217.9,445.4,204.1z"/>
<circle fill="none" stroke="#000000" stroke-width="0.792" cx="445.4" cy="373.9" r="3.4"/>
<circle fill="none" stroke="#000000" stroke-width="0.792" cx="445.4" cy="214.3" r="3.4"/>
<g>
	<path stroke="#000000" stroke-width="0.4447" d="M388.5,245l-0.4-2.2c0.3-0.3,0.7-0.4,1-0.4c0.3,0,0.7,0.1,1.1,0.3l4.9,2.8
		c0.1,0.1,0.3,0.1,0.3,0.1c0.2,0,0.4-0.1,0.7-0.2l-0.1-0.9l0.3-0.1l0.4,2.2l-1.7,0.9l-0.3-0.7l-4.4-2.5c-0.3-0.2-0.5-0.3-0.6-0.3
		c-0.2,0-0.4,0-0.6,0c-0.1,0-0.2,0.1-0.2,0.2c0,0.1-0.1,0.2,0,0.4c0,0.1,0,0.2,0,0.3L388.5,245z"/>
	<path stroke="#000000" stroke-width="0.4447" d="M391.5,236.9l0.3-0.4c0.5-0.8,1-1.4,1.6-1.6c0.6-0.2,1.1-0.2,1.5,0
		c0.3,0.2,0.5,0.4,0.6,0.7c0.2,0.3,0.3,0.8,0.3,1.4c0.4-0.3,0.8-0.5,1.1-0.6c0.6-0.1,1,0,1.5,0.2c0.5,0.3,0.8,0.7,1.1,1.3
		c0.2,0.6,0.4,1.6,0.5,3l-0.1,0.2c-0.5,0.8-1,1.3-1.7,1.5c-0.7,0.2-1.3,0.2-1.8-0.1c-0.4-0.2-0.6-0.5-0.8-1
		c-0.2-0.4-0.3-0.9-0.4-1.4c-0.3,0.3-0.6,0.4-0.9,0.4c-0.3,0-0.6,0-0.9-0.2c-0.4-0.2-0.7-0.6-1-1.1
		C392.1,238.8,391.8,238,391.5,236.9z M395.5,239.9c0.1,0.4,0.2,0.7,0.3,0.9c0.1,0.2,0.3,0.4,0.5,0.5c0.3,0.2,0.7,0.2,1.2,0
		c0.6-0.2,1.1-0.8,1.6-1.5c0.3-0.5,0.4-1,0.3-1.4c-0.1-0.4-0.3-0.7-0.5-0.9c-0.2-0.1-0.4-0.1-0.7-0.1c-0.3,0-0.6,0.2-0.9,0.5
		c-0.2,0.2-0.6,0.6-1,1.1C395.9,239.5,395.6,239.7,395.5,239.9z M392.2,238.3c0.1,0.2,0.2,0.4,0.3,0.5c0.1,0.1,0.3,0.3,0.4,0.4
		c0.3,0.2,0.6,0.2,0.9,0c0.2-0.1,0.4-0.3,0.7-0.7c0.2-0.3,0.5-0.7,1-1.2c0-0.3-0.1-0.6-0.2-0.8s-0.2-0.4-0.4-0.5
		c-0.2-0.1-0.4-0.1-0.7-0.1c-0.3,0.1-0.5,0.3-0.8,0.6C393.2,236.8,392.8,237.4,392.2,238.3z"/>
	<path stroke="#000000" stroke-width="0.4447" d="M401.1,236.6l-0.6-1.4l2.2-1.6c-0.3-0.6-0.6-1-0.9-1.3c-0.5-0.5-1-0.9-1.5-1.2
		c-0.1-0.1-0.3-0.1-0.5-0.2l0.2,3.7c-0.4,0.3-0.7,0.5-1,0.6c-0.3,0.1-0.7,0.2-1.1,0.2c-0.4,0-0.7-0.1-1.1-0.3
		c-0.6-0.3-1-0.9-1.3-1.6c-0.3-0.9-0.5-1.9-0.5-3c0.8-0.8,1.6-1.2,2.5-1.3c0.9-0.1,1.8,0.1,2.6,0.6c0.7,0.4,1.2,0.9,1.6,1.4
		c0.3,0.4,0.6,1,0.8,1.7c0.2,0.7,0.4,1.5,0.5,2.3L401.1,236.6z M399.6,230.7c-1.4-0.4-2.7,0.1-3.8,1.4c0.1,0.3,0.3,0.6,0.4,0.8
		c0.2,0.2,0.4,0.4,0.6,0.5c0.3,0.2,0.6,0.2,0.9,0.3c0.3,0,0.7-0.1,1-0.2c0.3-0.1,0.6-0.3,1-0.7L399.6,230.7z"/>
	<path stroke="#000000" stroke-width="0.4447" d="M401.2,222.5l0.6,1.4l-2.2,1.6c0.3,0.5,0.5,1,0.9,1.3c0.5,0.5,0.9,0.9,1.5,1.2
		c0.1,0.1,0.3,0.2,0.5,0.3l-0.2-3.6c0.5-0.4,1.1-0.7,1.6-0.7c0.5-0.1,1,0,1.5,0.3c0.6,0.3,1,0.8,1.2,1.4c0.4,0.8,0.6,1.9,0.5,3.2
		c-0.8,0.7-1.7,1.2-2.6,1.3s-1.7-0.1-2.6-0.6c-0.6-0.4-1.1-0.8-1.5-1.3c-0.4-0.5-0.7-1.1-0.9-1.9c-0.2-0.7-0.4-1.5-0.5-2.2
		L401.2,222.5z M402.7,228.4c0.7,0.2,1.4,0.2,2.1-0.1c0.7-0.2,1.3-0.7,1.8-1.3c-0.2-0.6-0.5-1.1-1-1.4c-0.4-0.2-0.8-0.3-1.3-0.2
		c-0.5,0.1-1,0.4-1.6,0.9L402.7,228.4z"/>
</g>
<g>
	<path stroke="#000000" stroke-width="0.4447" d="M488.7,222l2.1,0.7c0.1,0.4,0,0.8-0.1,1.1c-0.1,0.3-0.4,0.6-0.8,0.8l-4.8,2.9
		c-0.1,0.1-0.2,0.2-0.3,0.3c-0.1,0.2-0.1,0.4-0.2,0.7l0.9,0.3l-0.1,0.3l-2.1-0.8l0.1-2l0.7,0.1l4.3-2.6c0.3-0.2,0.5-0.3,0.6-0.4
		c0.1-0.2,0.2-0.4,0.3-0.5c0-0.1,0-0.2,0-0.3c0-0.1-0.2-0.2-0.3-0.2c-0.1,0-0.2-0.1-0.3-0.1L488.7,222z"/>
	<path stroke="#000000" stroke-width="0.4447" d="M486.3,231.1l1.5,0.2l0.3,2.7c0.6,0,1.1,0,1.6-0.1c0.7-0.2,1.3-0.4,1.8-0.7
		c0.1-0.1,0.3-0.2,0.4-0.3l-3.3-1.6c0-0.5,0-0.9,0-1.1c0-0.3,0.2-0.7,0.4-1c0.2-0.3,0.5-0.6,0.8-0.8c0.6-0.3,1.2-0.5,2-0.4
		c0.9,0.1,1.9,0.5,2.8,1c0.3,1,0.3,2-0.1,2.8s-0.9,1.5-1.8,2c-0.6,0.4-1.3,0.6-2,0.7c-0.5,0.1-1.2,0-1.9-0.1
		c-0.7-0.1-1.5-0.4-2.2-0.7L486.3,231.1z M492.2,232.7c1-1,1.2-2.4,0.7-4c-0.3-0.1-0.6-0.1-0.9,0c-0.3,0-0.5,0.1-0.8,0.3
		c-0.3,0.2-0.5,0.4-0.7,0.7c-0.2,0.3-0.3,0.6-0.3,1c0,0.3,0,0.7,0.1,1.2L492.2,232.7z"/>
	<path stroke="#000000" stroke-width="0.4447" d="M497.3,233.8l2.2,3.6l-1.4,0.2l-1.8-3l-3,1.2l3.1,1.5c0.1,0.8,0,1.5-0.2,2.1
		c-0.3,0.6-0.7,1.1-1.2,1.4c-0.7,0.4-1.5,0.6-2.3,0.5c-0.9-0.1-1.7-0.6-2.6-1.6v-3l1.4,0.3l0,3.5c0.4,0.1,0.7,0.2,0.9,0.2
		c0.4,0,0.7-0.1,1.1-0.3c0.5-0.3,0.9-0.8,1.1-1.3c0.2-0.6,0.2-1.3,0.1-2.2l-2.2-1L497.3,233.8z"/>
	<path stroke="#000000" stroke-width="0.4447" d="M498.5,239.7l3.2,1.3v3.8c-0.2,0.1-0.4,0.3-0.5,0.4c-0.6,0.4-1.3,0.5-1.9,0.5
		c-0.7-0.1-1.7-0.5-3.1-1.3c-0.6-0.4-1.1-0.6-1.4-0.7c-0.3-0.1-0.7-0.2-1-0.2c0.5,0.3,0.9,0.7,1.2,1c0.3,0.3,0.5,0.6,0.7,1
		c0.2,0.3,0.3,0.6,0.5,0.9c0.1,0.3,0.2,0.6,0.3,0.8l0.2,1.1l-1.7-0.3c-0.1-0.7-0.3-1.2-0.4-1.5c-0.1-0.4-0.3-0.7-0.5-1
		c-0.3-0.6-0.9-1.1-1.5-1.7c-0.1-0.1-0.2-0.2-0.2-0.2c0,0,0,0,0-0.1c0,0,0-0.1,0.1-0.1c0.2-0.1,0.4-0.2,0.8-0.2c0.5,0,1,0,1.5,0.1
		c0.4,0.1,0.9,0.2,1.7,0.5c0.7,0.3,1.2,0.4,1.6,0.5c0.5,0.1,0.9,0.1,1.3,0.1c0.4-0.1,0.8-0.2,1.2-0.4c0.6-0.3,0.9-0.8,1-1.4
		l-3.3-1.3L498.5,239.7z"/>
</g>
<g>
	<path fill="#EB0029" d="M444.3,300.3c0.1,0.2,0.3,0.3,0.5,0.3l0,0h0.3l0,0c0.2,0,0.5,0,0.7,0l0,0h0.3l0,0c0.2,0,0.4-0.2,0.5-0.3
		l0,0l5.4-13.7l0,0c0.3-0.7,0.6-0.7,0.6,0.1l0,0v8.4l0,0c0,0.8-0.5,1.5-1,1.5c-0.5,0-0.9,0.6-0.9,1.5l0,0v3.5h9.2V299l0-1l0,0
		c0-0.8-0.5-1.5-1-1.5c-0.5,0-0.8-0.4-0.9-1l0,0v-14c0-0.8,0.4-1.4,0.9-1.4c0.5,0,1-0.7,1-1.5l0,0v-3.9h-8.3l-6.2,15l-6.2-15h-8.4
		v3.9l0,0c0,0.8,0.4,1.5,0.9,1.5c0.6,0,1,0.6,1,1.4l0,0v13.5l0,0c0,0.8-0.4,1.5-1,1.5c-0.5,0-0.9,0.6-0.9,1.5l0,0l0,3.5h9.2V298l0,0
		c0-0.8-0.4-1.5-0.9-1.5c-0.5,0-1-0.6-1-1.5l0,0v-8.4l0,0c0-0.8,0.3-0.8,0.6-0.1l0,0L444.3,300.3L444.3,300.3z"/>
	<path fill="#EB0029" d="M445.4,257.7c16.6,0,30.2,13.6,30.2,30.2c0,16.6-13.6,30.2-30.2,30.2c-16.6,0-30.2-13.6-30.2-30.2
		C415.2,271.3,428.8,257.7,445.4,257.7L445.4,257.7z M445.4,263.8c-13.3,0-24.2,10.8-24.2,24.2c0,13.3,10.9,24.2,24.2,24.2
		c13.3,0,24.2-10.9,24.2-24.2C469.6,274.6,458.7,263.8,445.4,263.8z"/>
</g>
</svg>
